<svg version="1.1" id="logo-svg" xmlns="http://www.w3.org/2000/svg" xmlns:xlink="http://www.w3.org/1999/xlink" x="0px" y="0px"
	 viewBox="234.5 142.3 127.9 282.7" style="enable-background:new 234.5 142.3 127.9 282.7;" xml:space="preserve">
<style type="text/css">
	.st0{fill:#EACADA;}
	.st1{fill:#ED7CA5;}
	.st2{fill:#ED98BB;}
	.st3{fill:#EDB2CD;}
</style>
<g>
	<path class="st0" d="M271.5,145.8c2.7-0.7,3.9-0.1,2.2,2.8c-0.3,0.6-0.6,1.5,0.5,1.4c0.6,0,1.1-0.7,1.7-1c0.5-1.9,3,3.9,3.1-0.9
		c0-1.7-0.1-3.8,1.1-5.4c0.9,0.2,2.5,0.3,2.6,0.7c1.4,5.1,5,5,9,4.1c1.1,1.4,0.4,3.3,1,4.9c1.1-0.8,1.1-2.1,2.1-2.8
		c2.1-0.7,3.5,0.1,4.2,2.1l0,0c3,0.9,1.8,4.4,4,5.9c1.8-3.6,4-5.4,6.4,0c5.1,3.8,9.9,7.9,15.9,10.3c5.6,0.8,11.4,1.2,13.7,7.8
		c0.5,2.1,1.2,4.2,0.9,6.5c-0.4,1.8-0.9,3.4-2.1,4.8c-4.7,0-3.2-5.3-6.1-6.6c0.9,1.8,3,3.7,1.7,6.3c-1.9,2.4-0.7,5-0.5,7.6
		c0.3,4.6,0.3,9.3-4.7,11.9c-2-1.1-2.6-2.6-2.8-4.3c-0.3-2.6,0.4-2.9-0.4-6.1c-0.4-1.8-1.1-3.2-0.8-5.5c0.1-0.4,0.1-0.8,0.2-1
		c0.4,2.4,0.5,5.1,0.8,7.9c0.2,2.7,0.4,5.4,0,8.1c-0.4,0.6-0.9,1.1-1.6,1.3c-2.1,0.6-2.2-1.7-3.4-2.4c-0.6,3.2,2.2,3.9,3.9,5.5
		c1.6,1.7,1.8,3.7,1,5.9c-2.2,2.5-4.9-0.7-7.2,0.6c-7,0.9-9.4-6.1-14.4-8.6c-2.3-1.2-4.5-2.5-6.8-3.4c-1.7-0.7-2.6-0.4-2.7,1.6
		c-0.3,1-1,1.6-1.8,2.1c-3.2-1.8-2,2.2-3.5,2.7c-2.1,0.2-3-1.2-3.9-2.8c-2.7-7-10.5-7.6-15.3-11.9c-0.6-0.3-1.2-0.7-1.7-1.2
		c-2-2.4-1.6-4.6,0.5-6.6c5,0,7.6,4.5,11.8,5.8c-5.9-5.8-12.1-11.6-18.5-17.1c-2.5,1.4-5.2,3.3-6.1-1.6c-1-2.9,0.9-4.4,2.7-6
		c1.7-1.6,3.6-3.1,3-5.8c0.6-1.3,1.5-2.2,3-2.2c1.1,0.2,1.7,0.8,2.1,1.8c0.8,1.6,2.4,2.9,2.7,4.9c-1-5.4,0.2-10.9-1-16.3
		C267.5,148.6,269.1,147,271.5,145.8z"/>
	<path class="st0" d="M240.8,195.9c2.2-1.4,5.5-0.4,7.1-3.1c-0.3-2.6,0.6-4.5,2.8-5.8c0.6-2.4-2.7-5.9,1.9-7.3
		c3.7-0.3,5.4,1,3.5,4.8c-1.8,6.4,3.5,8.1,7.3,10.6c1.5,1,3.7,0.7,5.5,1.4c3.6,1.8,7.2,3.8,10.8,5.4c2.5,1.1,5.4,2.3,5,6
		c-12.1-1.7-21.3,3.4-29.1,12.1c-5.2-1.1-6.8-3.7-4.9-7.9c0.9-1.9,2.8-3.3,2.5-5.7c0.3-0.6,0.8-1.1,1.4-1.5c1.2-0.8,2.6-1.1,4.1-1.1
		c1.4-0.1,2.8,0.8,4.2,0c-6.3-6.4-12.5-6-14.6,1c0.2,0.5-1.9,1.6,0.2,1.5c1.3,0,2.7-1,4,0.1c1.3,4.1-3.5,6.3-3.1,10.6
		c0.2,2.5-3.2,0.7-4.4-0.2c-2.8-2.2-5.7-3.3-9.2-3.1c-1.6-3.1-0.1-5.9,1-8.8c0.9-1.3,1.2-2.8,1.6-4.3c0.3-0.5,0.6-1,1-1.4
		C240.2,198,239.8,196.6,240.8,195.9z"/>
	<path class="st0" d="M255.1,183.9c1.8-3.1-1.1-3.3-2.6-4.4c-1.6-3.1,2.3-2.7,2.8-4.4c1.9,3.3,3.8,1.1,5.7,0
		c3.6,3.8,7.7,7.3,7.3,13.2c-0.1,2-1.4,3.9,0,5.9C262,195.5,257.7,192.1,255.1,183.9z"/>
	<path class="st1" d="M267,153.3c0.5-0.6,1-1.2,1.5-1.8c4.2,4.2-0.4,9.6,2,14.2c0.7,1.4-0.1,3.6-0.3,7.4c-2.2-4.2-3.6-7-5-9.8
		c0.7-0.7,0.6-1.7,0.9-2.6c0.6-2.1,2.1-3.9,1.1-6.3l-0.6,0.1C267,154.2,267.1,153.8,267,153.3z"/>
	<path class="st0" d="M335.8,403.9c-0.8-1.1-1.5-4.2-2.9-1.1c-1.2,2.7-4.5,4.4-4,8c0,0.1-0.4,0.4-0.5,0.3c-0.3-0.2-0.6-0.5-0.9-0.7
		c-1.5-1.6-2.5-3.4-2.5-5.6c0.1-1.4,0.4-2.8,0.6-4.2c-5.3,1.2-3.5-3.2-4.4-5.5c-0.2-5.8-0.3-11.6,1.2-17.2c0.6-2,1.7-2.3,3-0.7
		c2.1,2.5,2.1,5.7,2.7,9.5c1-7.4-5.4-12.1-4.2-17.2c0.5,1.2,1.2,3.7-0.2,6.4c-1.8,1.1-1,3.5-2.1,5.1c-2.6-0.8-2.8-2.4-2.2-4.4
		c0.1-0.2,0.3-0.4,0.5-0.6c-0.6,0.1-1.1,0.5-1.5,0.9c-0.7,0.2-1.4,0.1-2,0c-2.1-1.4-2.1-3.4-1.7-5.6c0.9-2.4,2.7-4.6,1.4-7.4
		c-0.5-2.4,0-4.7,0.6-7c0.7-4.5-0.7-8.6-2.9-12.4c-1.2-0.3-2-1.2-2.7-2.1c-0.7-1.4-2.6-0.9-3.5-2.1c-1.3-2.5-1.5-4.4,2.2-4.4
		c3.1,1.5,6.2,1.1,9.4,0.1c0.3,0.1,0.8,0.1,1.4,0.3c3.7,0.8,4.3,1,5.2,0.9c0.7-0.1,1.9-0.6,3.2-2.3c0.6,0.3,1.1,0.8,1.5,1.3
		c3.2,3.7,7,7,8.2,12.1c0.8,3.1,1.5,6.2,0,9.2c-1.2,2.5-2.6,1.4-3.5-0.4c-0.7-3.1-5.1-2-5.8-5.2c-0.1-0.7-0.2-1.7-1.2-2.1
		c0.4,0.6,0.5,1.3,0.5,2c0,0.7-0.1,1.3-0.3,2c0.5,7.2,2.4,13.7,8.8,18c0.4,0.5,0.8,1.1,1,1.7c0.4,1.7-0.3,3.2-0.9,4.8
		c-0.6,1.5-1.1,3-1.5,4.6c-1.8,6.2-0.6,12.2,1.5,18.1C337.5,402,337.7,403.4,335.8,403.9z"/>
	<path class="st0" d="M353.7,333.4c0.2,1,0.4,2,0.5,3c3.3,5.2,1.2,10.6,0.3,15.9c-4.1,5.4-5.7,11.3-3.8,18
		c-0.3,5.4-2.7,10.2-3.9,15.4c-0.6,2.5-2,4.4-4.9,4.6c-5.1-4-5.3-6-0.9-8.8c0.5-0.3,0.5-0.3,0.3-1c-1.8-4.2-2.9-8.6-4.4-13
		c0.2-2.2,0-4.4,0.6-6.5c1.7-6,1.6-11.6-1.4-17.4c-1.3-2.4-2.1-5.4-1.5-8.4c0.7-2.1,1.2-4.8,4.2-1.8c0.6,0.9,0.4,2.4,1.5,2.9
		c0.4,0.2,0.8-1,1.2-1.6c2.3-2.5,7.5-1.1,8-5.9c0.6-1.2,1.4-2.3,2.7-2.9c0.6-0.2,1.3-0.2,1.9,0.1C355.7,328.6,354.6,331,353.7,333.4
		z"/>
	<path class="st0" d="M306.9,424.5c-4.1-2.7-8.6,2.7-13-0.8c-1.4-1.1-4.6,0-4.4-3.5c0.8-3.6-0.9-6.9-1.6-10.4
		c-0.5-3.8-0.5-7.5,2.6-10.4c2-0.5,2.6,1,3.2,2.4c0.1,5.1,1.7,10,2.1,14.7c1.1-2.4,3.1-3.6,6.1-1.9c0.7,1.1,1.5,1.6,2.8,0.8
		c2.2,1.2,3.9,0.4,5.9-0.7c2.7-1.5,5.7-2.6,8.6-0.3c0.5,1,0.4,2-0.3,2.9c-3.4,2-8.4,1.3-10.4,5.8
		C307.5,423.1,307.6,424.3,306.9,424.5z"/>
	<path class="st2" d="M326.1,404.1c0.4,2.1,0.9,4.2,1.3,6.3c-1.3,0.4-2.3,1.1-2.9,2.4c-1.3,1.7-1.9,5-5,1.9c-0.2-0.6-0.4-1.3-0.6-2
		c0.2-4.2,2.4-7.1,6.1-8.9C325.4,403.9,325.7,404,326.1,404.1z"/>
	<path class="st0" d="M355.6,326.1c0,1,0,2,0,2.9c-0.6,1.4,0.4,3.6-1.9,4.3c0.1-2.4,0.2-4.9,0.3-7.3
		C354.5,325.6,355,325.6,355.6,326.1z"/>
	<path class="st0" d="M292.2,402.6c0-1.2-0.3-2.3-1.5-2.9c-1.5-1.2-1.6-2.9-1.8-4.7c-0.3-1.2,0.9-3.7-2.2-2.3
		c-0.6-0.2-1.1-0.6-1.4-1.1c-0.3-0.6-0.5-1.2-0.6-1.9c-0.2-4.5-0.4-9-1.4-13.4c-0.5-2.1-1.1,0.2-1.7,0.1c-1.4-0.2-2.8-0.5-2.6,1.7
		c-0.9,1.4-1.5,4.8-3.5,1.1c-1.8-3.3-1.4-7.1-0.9-9.7c0,5.6-4.9,10.7-5.7,17.1c-0.3,1.2-1,2.5,0.7,3.4c0.5,0.2,1,0.2,1.4-0.2
		c0.8-2.9,0-5.9,0.5-8.8c0.3-1.4,0.6-3.2,2.3-3.3c1.5-0.1,1.2,1.8,1.8,2.7c3.5,5.9-1.6,11.7-0.3,16.7c0.2,1.9,1.7,0.7,0.8,1.1
		c-0.3,0.1-0.5-0.1-0.4-0.5c0.6-2.9-3.2-9.4,4.9-5.9c1.1,1.2,1.3,2.7,1.2,4.3c-0.5,2.1-0.9,4.2-1.8,6.2c-4.5,4.3,2.2,7.2,1.4,11.1
		c-0.2,0.7-0.5,1.2-1.1,1.6c-3.3,0.2-3.6-3.3-5.8-4.6c-2.4-3.3-5.7-5.4-9.1-7.6c-0.4-0.6-0.6-1.2-0.6-1.9c2-6.3-4.3-1.4-5.2-3.8
		c-0.6-0.9-0.8-1.8-0.7-2.9c-0.3-2.9,3.4-4.2,2.8-7.2c-0.3-1.4-0.2-2.7,0-4c1.3-3.6-0.5-7-0.8-10.5c-0.1-4.2-0.4-8.4,0.3-12.5
		c0.2-1.9,2.2-3.1,1.8-5.2c0,0-0.1-0.1-0.2-0.2c-0.3-0.2-0.4-0.2-0.4-0.3c0-0.1,0.5-0.3,0.7-0.1c0.1,0.1,0.1,0.2,0.1,0.8
		c0,0.4,0,0.6,0,0.6c-0.1,0.7-1,1.4-1.9,1.6c-0.1,0-1.2,0.2-2-0.5c-0.8-0.7-0.6-2.1-0.7-3.4c1.2-6.9,3.2-12.6,11.7-14.3
		c4.3-0.8,6.8-0.5,9.4,2.4c1.5,0.6,3.4-0.1,4.4,1.8c1,5.1-5.4,8.5-2.9,13.3c0.9-1.1-1.7-4.9,1.5-5.1c2.8-0.2,3.1,2.5,2,4.9
		c-0.4,0.9,1.2,0.6,0.2,0.5c-0.2,0-0.1-0.2,0-0.7c0.2-1.7,3.9-3.2-0.4-5.3c-2.3-1.1-1.2-4.8,0.9-6.3c2.8-2,4.9,0.3,5.8,2.5
		c1.9,4.8,2.2,10,3.1,15.1c0.1,0.7,0,1.4-0.1,2.1c-0.2,0.6-0.5,1.3-0.8,1.9c-1.4,2.5-0.8,5.3-0.8,7.9c-0.2,4.6,0.2,9.2,2.2,13.5
		c1.5,3.4,2.4,6.9,1.8,10.6c-0.1,0.7-0.3,1.4-0.6,2.1C295.1,401.2,294.7,403.3,292.2,402.6z"/>
	<path class="st0" d="M289.3,411.5c1.8,2.9,3.1,5.8,0.1,8.8c-0.5-0.5-1.1-1-1.6-1.6c-1.8-2.1-5.4-2.8-5.1-6.6
		c0.8-2.9-0.8-6.8,3.4-8.4C290,405.2,287.5,409.2,289.3,411.5z"/>
	<path class="st3" d="M266,402.6c4.8,0.5,8.6,1.9,8.5,7.7c-1.5,0.8-2.9,1.1-4.1-0.4C268.7,407.6,263.2,407.6,266,402.6z"/>
	<path class="st0" d="M283.4,412.9c-0.4,3.3,6.3,1.3,4.4,5.8c-3.5,0.6-7.3,1.9-7.6-3.8c0.1-0.7,0.2-1.3,0.2-2
		c0.6-0.8,1.4-0.9,2.3-0.6C283,412.5,283.2,412.7,283.4,412.9z"/>
	<path class="st0" d="M303.6,206c2.8,0,4.4,1.8,5.6,3.9c2,3.6,5.1,4.9,9,4.9c1.3,1.2,1.6,2.7,1.3,4.4c-0.8,2.7-2.6,3.8-5.4,3.5
		c-5.5-3.4-11.3-5.1-17.8-4.8c-2.3-0.4-4.2-1.2-4.9-3.7c0.1-2.1,2.7-1.6,3.4-3.1c-0.9,0.6-1.8,1.3-2.9,1.4c-1.2,0-1.8-0.6-2.1-1.7
		c0.3-1.3,0.8-2.5,2-3.4c0.5-0.5,1-1,1.5-1.5C296.8,203.8,300.2,207.6,303.6,206z"/>
	<path class="st0" d="M324.2,206c0.8-6-1.3-12.1,1.1-18.2c1.7,6-0.3,12.7,3.4,18.2c0.2,0.2,0.4,0.5,0.6,0.6c0.4,0.2,0,1.4,0.4,1
		c0.6-0.6,0.9-1.6,1.8-2.1c2.4,0.1,4.5,0.8,6.5,2c0.8,1.2,0.8,2.5,0.2,3.8c-0.3,0.4-0.6,0.6-1.1,0.8c-0.9,0.4-3.8-1.6-2.1,1.8
		c-0.8,2.2-2,3.9-4.2,4.9c-2.7,0.4-5.5,1.4-6.7-2.4c-0.1-2.1,0.8-4.4-1.4-6.1C321.9,208.5,323,207.2,324.2,206z"/>
	<path class="st1" d="M268.4,188.3c-2.5-4.4-4.9-8.8-7.3-13.2c0.8-0.6,1.5-1.1,2.2-1.7c4.4,10.1,16,13.7,21.2,24.3
		C277.9,195.7,273.2,191.9,268.4,188.3z"/>
	<path class="st1" d="M305.1,172.2c-0.1,11.3,4.3,21.7,6.5,32.6c-9.3-12.3-8.4-27.3-11.3-42.3C305.7,164.9,301.8,170.1,305.1,172.2
		L305.1,172.2z"/>
	<path class="st1" d="M287.5,183.9c-1.9-4.7-5.4-8.4-6.5-13.8c-1.2-6.3-1.5-11.9,3.1-17.4C285.3,163.4,286.4,173.7,287.5,183.9
		L287.5,183.9z"/>
	<path class="st1" d="M337.7,176.1c0.9-0.2,1.7-0.3,2.6-0.5c1.1-0.3,2,0.1,2.8,0.8c1.6,1.3,3,2.7,4.3,4.2c1.1,1.4,1.6,3.1,1.4,4.9
		c-0.4,2.1-0.7,4.2-1.1,6.3c-1.3,3-1.6,6.6-4.8,8.6c-5.1-2.9-1.5-8.7-4-12.5c-0.5-1.8-1.3-3.7,0-5.5
		C338.5,180.3,338.1,178.2,337.7,176.1z"/>
	<path class="st2" d="M287.5,183.9c0.6,4.7,5,6.4,7.5,9.5c-12-1.1-22.3-17.2-18.4-28.5C278.2,172.3,279.9,179.8,287.5,183.9
		C287.5,183.9,287.5,183.9,287.5,183.9z"/>
	<path class="st2" d="M301.2,196c-7.1-11.9-7.2-12.7-4.8-29.7C297.9,175.5,299.4,184.8,301.2,196z"/>
	<path class="st2" d="M255.1,183.9c4.1,3.8,6.2,10.2,13.2,10.3c0.5,0,1,0,1.5,0c1,0.6,2,1.5,1.4,2.7c-0.6,1.1-1.8,1.1-2.9,0.2
		c-8-0.2-14.5-4.9-15.1-11C253,184.4,253.8,184.1,255.1,183.9z"/>
	<path class="st2" d="M337.5,207.5c-2.6,2.1-4.2,0.2-5.9-1.5c-1,0.9-2,0.9-2.9,0l0,0c2.1-4.8,4.1-9.5,1.8-15
		c-0.5-1.2-2.5-5.5,2.6-4.1c0.2,0.2,0.5,0.5,0.7,0.7c1.5,2.7,0.7,5.9,1.6,8.8c0.6,2.1,0.5,4.2,1.1,6.3c0.2,0.5,0.4,1.1,0.7,1.6
		C337.6,205.2,338.2,206.3,337.5,207.5z"/>
	<path class="st2" d="M305.1,172.2c-0.4-2.8,1.1-4.5,4-6.2c0.3,8.8,7.8,15.9,3.3,27.2C313.5,183.6,310.6,177.3,305.1,172.2
		C305.1,172.2,305.1,172.2,305.1,172.2z"/>
	<path class="st0" d="M339,182.5c0.1,1.6-0.3,3.4,1.5,4.4c1.5,4.7,0.6,9.5,0.2,14.2c-0.2,2.5-1.1,4.9-4.6,3.4l0,0
		c-1.4-4.8-0.8-9.6-0.3-14.4c0.2-1.3,0.8-2.3,1.8-3.2C337.5,185.3,337.2,183.5,339,182.5z"/>
	<path class="st2" d="M268.3,197.2c2.6,0.1,2.2-1.3,1.5-2.9c4,2.4,8.1,4.7,12.1,7.1c2.5,1.5,4.8,3.3,3.8,6.8
		c-0.4-0.2-0.9-0.5-1.3-0.7C280.9,201.1,272.7,202.2,268.3,197.2z"/>
	<path class="st1" d="M303.6,206c-3.4,4.1-6.8,0.7-10.2-0.1c-0.5-1.8-3.1-2.6-2-5.5C295.7,201.8,299.9,203.2,303.6,206z"/>
	<path class="st2" d="M324.2,206c-0.5,1.5-1,2.9-1.5,4.4c-7.6-2.3-3.2-8-4.1-12.9C323.4,199.2,319.5,205.2,324.2,206z"/>
	<path class="st1" d="M337.5,186.9c0,1,0,1.9,0,2.9c-0.8,0.8-1.7,0.9-2.7,0.6c-1.2-0.8-0.6-2.6-1.7-3.5l0,0c-0.2-2.5-1.3-4.6-3-6.4
		c-0.9-0.9-3-1.5-0.4-2.8c1.5-0.8,2.5-0.7,3.4,1.2C334.4,181.5,336,184.2,337.5,186.9z"/>
	<path class="st2" d="M267,161.8c-0.6,0.5-1.1,1.1-1.7,1.6c-0.5-0.5-1-1.1-1.6-1.6c-0.3-2.3-0.5-4.6,2.9-4.6
		C268.1,158.6,267.7,160.2,267,161.8z"/>
	<path class="st2" d="M291.9,207.5c0,1.3-0.4,2.4-1.7,3c-0.4,0.7-0.9,0.6-1.3,0l0.2-0.6C288.9,207.9,288.8,205.9,291.9,207.5z"/>
	<path class="st0" d="M249.1,249.9c-2.2,2.6,0.3,6.7-2.8,9c-0.9,1.1-1.7,2.5-3.5,1.4c-3.5-3.1-1.8-8.3-4.7-11.7
		c-1.1-3.8-2.5-7.5-0.8-11.5c2.3-2.5,2.7-5,0-7.6c-0.5-5.5-3.8-10.7-2.4-16.5c0.4,0,0.8,0.1,1.1,0.2c5.6-4.5,8.4,1.3,13.4,4
		c-3.5-5.5,2.8-7.3,2.8-11.4c0.5-0.3,1-0.4,1.5,0c1.6,2.4-0.4,3.9-1.3,5.6c-1.9,3.5-1.7,6.3,2.8,7.6c-4.8,9.2-6.7,19-5.7,29.4
		C249.7,249.1,249.6,249.6,249.1,249.9z"/>
	<path class="st1" d="M247.7,204.5c-1.4-6.9,0.1-8.6,6.4-7.2c3.2,0.7,6.5,1.4,9.5,2.8c1.3,0.6,3.7,1.9,2.2,4.5
		c-1.2,2.2-2.6,1.8-4.6,0.9c-1.8-0.8-4.2-1-6.1,0.5C252.9,204.2,250,206.2,247.7,204.5z"/>
	<path class="st2" d="M247.7,204.5c2.8-1.2,5.2-0.5,7.4,1.5c-0.5,0-1,0-1.5,0c-0.5,0-1,0-1.5,0c-2.1,1.1-4.1,2.2-7.1,3.7
		C244.9,207.1,244.2,205,247.7,204.5z"/>
	<path class="st2" d="M267,161.8c-0.1-1.5-0.3-3.1-0.4-4.6c0.2-0.9,0.4-1.8,0.7-2.7C268.7,157,269.1,159.4,267,161.8z"/>
	<path class="st0" d="M334.5,213.6c-0.1-0.9-0.1-1.7-0.2-2.6c1.1,0.3,2.1,0.6,3.2,0.9c0.8-1.1,1.5-2.2,3-2.6
		c1.9-0.5,3.6-1.5,5.5-1.5c3.4-0.1,4.4-1.3,4.2-4.9c-0.3-4.2,0.7-8.5,3.8-11.9c3.4,1.1,2.8,3.7,2.5,6.3c0,5.1,3.5,8.7,5.4,13
		c-0.6,4.3,2.2,8.9-1.1,12.9c-2.5,3.9-7.8,1.4-10.6,4.5c-0.5,0.5-1.1,0.6-1.8,0.3c-0.2-1.9-0.5-3.9-0.7-5.8c2.5-1.7,3.7-4.3,4.7-7
		c-1.8,2.2-2.2,5.3-4.7,7.1c-0.4-0.1-0.8-0.1-1.1-0.2C343.1,218.5,336.3,219.6,334.5,213.6z"/>
	<path class="st2" d="M329,335c-3,1.7,0.3,4.3-0.8,6.4c-3.8-0.6-6.4-3.1-9.4-4.9c-0.5,0.5-1,0.6-1.7,0.3c-1-1.4,0.1-4.3-3-4.2
		c-0.9-0.6-1.5-1.3-1.7-2.3c2-6.5,7.5-8.5,13.2-10.2c0.6,0.3,1.1,0.8,1.5,1.4c1,1.4-0.7,4.4,2.5,4.6c1,0.9,1.7,1.9,1.2,3.3
		C328.7,330.8,329.5,333.1,329,335z"/>
	<path class="st0" d="M339.2,396.5c-2.1,0-2.7,1.6-3.1,3.2c-3.1-5.7-4.5-11.5-1.2-17.6c0.6,0.3,1,1.4,1.3,1.4
		c0.9,0.1,0.2-0.7,0.2-1.1c0-1.6,0-3.2,0-4.8c0.5-1.5,1-2.9,1.5-4.4c-1.2-1.5-1.3-2.9,0-4.4c4.5,3.7,3.3,9.7,5.7,14.2
		c0.3,0.5-0.3,2.1-0.9,2.4c-1.3,0.6-1.1-0.8-1.5-1.6c-1.2-2.4-1.5-0.3-1.7,0.5c-0.5,2.1,0.8,3.7,1.6,5.4c3.1,2,1.4,3.7-0.4,5.4
		C340.2,395.6,339.7,396.1,339.2,396.5z"/>
	<path class="st2" d="M336.4,373.2c-5-3.1-6.4-8.7-8.9-13.4c-1.2-2.3-2.6-4.8,0-7.2c0.4,0.4,0.6,0.8,0.6,0.9
		c-0.1-0.2-0.3-0.5-0.6-0.9c0.4-2.8-1.2-5-2.3-7.6c4.1,3.2,6.3,8.4,11.1,10.6C335.6,361.5,339,367.3,336.4,373.2z"/>
	<path class="st2" d="M336.4,373.2c1.2-5.9-4.2-11.8,0-17.6c0,0.2,0,0.5,0.1,0.7c0.2,0.3,0.6,0.5,0.9,0.7c1.8-4.8-1.5-13.3-5.8-16
		c-1.3-0.8-1.7-3-2.6-4.5c0.8-1,1.4-2.1,2.9-2.2c1.5-0.1,3.2-0.6,4.5,0.7c-0.3,8.8,5.1,17,3.1,26.1c-0.6,2.5-0.1,5.3-1.6,7.7
		c0,1.5,0,2.9,0,4.4h-0.7H336.4z"/>
	<path class="st2" d="M312.6,330.5c0.6,0.5,1.1,1.1,1.7,1.6c-0.7,1.8-2,3.1-3.5,4.2c-0.3,0.1-0.6,0.1-0.9,0.2
		c-3.9,0.3-0.9,3-1.5,4.4c-0.3,0.2-0.6,0.4-0.8,0.6c-4.5-3.8-10.5-1.3-15.5-3.7c-5.2-2.4-4.3-4.3-0.4-6.8
		C298.7,330.7,305.6,329,312.6,330.5z"/>
	<path class="st2" d="M323.1,376.2c0.9-4.1-2.8-7.9-0.9-12.1c7.2,7.6,9.6,21.3,4.3,27.4C325.5,386.1,327,380.5,323.1,376.2
		L323.1,376.2z"/>
	<path class="st1" d="M315.8,370.3c0.2,2-0.7,4.3,1.5,5.9c1.8,3.1,2.7,6.2-0.4,9c-2.3,0-1.4-1.9-1.7-3.3c-0.7,4.2,3.9,9.1-2,12.2
		c-2.2-1.4-2.2-3.9-3-6c-1.7-6.4,1.9-12.5,1.4-18.9c0.2-0.8,0.6-1.4,1.2-2c1.1-0.7,2.2-0.8,3.3-0.2
		C316.7,368.2,316.6,369.2,315.8,370.3z"/>
	<path class="st1" d="M323.1,376.2c0,6.9,0,13.7,0,20.6c-0.6,0.5-1.3,0.4-1.9,0c-0.4-0.6-0.6-1.3-0.8-2c-0.4-1.1,2-4.5-2.1-2.7
		c-2.5-5.4,0.1-10.6,0.4-15.8c2.9-0.4,0.6,2.5,2,3.1C321.5,378.2,322.3,377.2,323.1,376.2L323.1,376.2z"/>
	<path class="st2" d="M318.7,357c-1.4,2.3-1.6,4.8-1.5,7.4c-0.3,0.1-0.6,0.2-0.9,0.3c-2.3-0.9-3.9-2.4-4.1-5c0.6-3.7-1-7-2.1-10.5
		c-0.4-1.4-0.5-2.8-0.5-4.3c0.1-1.6,0.5-3,1.8-4c1,1,2,2,2.9,2.9C316,348.1,316.7,352.8,318.7,357z"/>
	<path class="st2" d="M318.7,357c-4.6-3.4-4.4-8.4-4.4-13.2c0-0.2,0-0.5,0.1-0.7c0.2-0.3,0.6-0.5,0.9-0.8
		C316.3,347.2,319.7,351.6,318.7,357z"/>
	<path class="st2" d="M318.7,376.2c0.8,5.4-1.7,11,1.5,16.2c1.1,1.8,0.7,3-1.3,3.6c-0.8,0-1.6-0.2-2.2-0.8c-1.2-3.3-1.6-6.7-1-10.2
		c2.7-2.6,1-5.9,1.5-8.8C317.7,376.2,318.2,376.2,318.7,376.2z"/>
	<path class="st1" d="M332,335c-1,0.5-1.9,1-2.9,1.4c0-0.5,0-1,0-1.4c-2.6-2.8-5.5-5.6,1.5-5.9C334.4,330.2,333.4,332.5,332,335z"/>
	<path class="st3" d="M336.4,377.6c2.6,2.6,1.1,5.8,1.3,9c-2.5-0.8-2.5-2.8-2.8-4.6C335,380.4,334.6,378.7,336.4,377.6z"/>
	<path class="st3" d="M321.7,396.7c0.5,0,1,0,1.5,0c0.1,0.9,0.1,2.6,0.4,2.7c2.1,0.3,0.4-2.3,2.3-2.8c-0.5,2.6,2.8,4.8,0.3,7.5l0,0
		C321.4,403.6,318.6,401.9,321.7,396.7z"/>
	<path class="st0" d="M317.3,336.4c0.5,0,1,0,1.5,0c-2.9,3.3-5.9,3.3-8.8,0l0,0C312.4,334.8,314.8,332.3,317.3,336.4z"/>
	<path class="st1" d="M311.4,340.9c0,1.5,0,2.9,0,4.4c-0.8,0.8-1.7,1-2.8,0.9c-1.4-0.4-2.5-1-3.4-2.2c-0.4-2.6,2.3-1.9,3.2-3.1l0,0
		C309.4,340.7,310.4,339.2,311.4,340.9z"/>
	<path class="st0" d="M315.8,370.3c0-1,0-2,0-2.9c-0.9-1.7,0.4-2.3,1.5-3C320.1,367.2,318.2,368.8,315.8,370.3z"/>
	<path class="st2" d="M355.6,326.1c-0.5,0-1,0-1.6,0c-0.5,0-1,0-1.4,0c-0.2-0.2-0.5-0.5-0.7-0.7c-1.3-1.9,1-5.6-3.1-6
		c-0.6-0.4-1.1-0.8-1.5-1.4c-1.1-2.3-1.1-4.9-2-7.3c-1.5-6.4,1.7-12,3-17.9c0.8-1.7,1.6-3.9,3.8-3.5c3.5,0.6,3.4,4,4.3,6.6
		c0.2,0.8,0.3,1.5,0.3,2.3c-0.3,4.9,1,9.7,0.8,14.5c-0.1,2.4,1.6,5.3-1.2,7.3C354.6,321.9,356.6,324.2,355.6,326.1z"/>
	<path class="st0" d="M351.1,329.1c-0.3,5.8-4.5,5.9-8.8,5.9c-1.1-0.1-1.9-0.7-2.5-1.5c-0.9-2.6-5-3.9-3.1-7.6
		c0.1-1.9-0.4-3.9,0.5-5.8c1.8-2.7,4.1-4.6,7.4-4.8c0.7,0.2,1.2,0.6,1.5,1.2c2.6,3.4-2.1,8,1.7,11.2
		C349.1,327.9,350.2,328,351.1,329.1z"/>
	<path class="st2" d="M339.1,325.8c-3.6,3.5,2.7,4.7,1.8,7.6c0.1,2.7-1.3,2.4-3,1.5c-0.3-0.6-0.5-1.3-0.8-1.9
		c-0.2,0.6-0.5,1.3-0.8,1.9c-1.5-0.5-2.9,1.7-4.4,0c-0.2-2,0.7-4.3-1.5-5.9c-0.5-1-1-2-1.5-2.9c-2.2-0.7-1.8-3.1-2.9-4.5
		c0-0.4,0-0.8,0-1.2c0.2-0.3,0.4-0.5,0.6-0.8c2.7-1.3,4.3,0.6,6,2.1C334.9,323.1,337,324.6,339.1,325.8z"/>
	<path class="st0" d="M350.8,365.8c-2,1-0.5,3.1-1.3,4.5c-3.4-6.9-1.5-12.8,3.2-18.2c0.5,0.7,1,1.4,1.5,2.1c1.5,3.4-1.5,6-1.5,9.1
		C352.4,364.3,351.8,365.2,350.8,365.8z"/>
	<path class="st2" d="M345.2,357c2.9,4.9,1.4,9.7-1.5,14.6c0-2.9,0-5.8,0-8.7C343.6,360.8,341.8,358.3,345.2,357z"/>
	<path class="st2" d="M345.2,357c-1.2,1.8,0.4,4.2-1.5,5.9c-2.4,1.3-0.6,4.2-2.4,6.1c-1.5-5.2,0.1-9.6,2-14c0.4-0.9,1-2,1.7-0.1
		C345.3,355.5,345.1,356.3,345.2,357z"/>
	<path class="st2" d="M337.9,335c1.2,0,2.3-0.3,3-1.5c0.5,0.5,1,1,1.5,1.5c-0.1,1.9,0.4,4.7-2,4.7C338.5,339.7,338,336.9,337.9,335z
		"/>
	<path class="st3" d="M351.1,329.1c-1.5,0-2.9,0-4.4,0c-0.8-1.3-0.2-2.4,0.4-3.5c1.1-1.6,2.5-1.6,4.1-0.7c0.5,0.4,0.9,0.8,1.4,1.2
		l0,0C352.1,327.1,351.6,328.1,351.1,329.1z"/>
	<path class="st0" d="M315.8,385c0.8,3.4,1.9,6.7,1.5,10.3c2.9,4.5-1.1,9.6,1,14.1c0.6,1.2,1,2.5,1.9,3.5c0,0.6-0.1,1.2-0.1,1.8
		c-0.3-0.1-0.7-0.1-1-0.2c-3.6-0.3-7.1,0.4-9.7,3.1c-3.3,3.5-3.9-0.3-5.4-1.8c-2.9-3.5-1.9-7.6-1.7-11.6c1.9-4.3-3.7-9.5,1.8-13.4
		c3.5,0.2,2.8,3.6,4.1,5.5c1.6,3.9,2.5,7.8,1.1,12.2c2-3.5-0.1-7,0.6-10.4c0.4-1.8,1.1-3.5,2.9-4.4c3.2-4,0.3-8.9,1.8-13.2
		C316.7,381.7,315.4,383.5,315.8,385z"/>
	<path class="st2" d="M304,390.9c-3,3.9,2.1,7.8,0,11.8c-4.7,4,0.5,9-1.5,13.2c-2.8-2.2-6,2.5-7.5,0.5c-2.9-3.9-3.2-8.9-2.8-13.8
		c1-1,2-2,2.9-2.9c1.3,2.9,0.7,5.9,0.6,7.1c-0.2-1.1,0.9-4.2-0.6-7.1c0.4-4-0.3-7.9-1.5-11.8c0.1-3.2-2.5-6.2-0.9-9.6
		c0.4-0.6,0.9-0.9,1.5-1.1c4,2.2,2.2,8.1,6.5,10.1c1,0.8,2,1.6,2.8,2.6C303.8,390.3,303.9,390.6,304,390.9z"/>
	<path class="st2" d="M302.5,415.9c-1.8-4.2-4.3-8.3-0.8-12.9c0.6-0.8,1.3-1.4,2.3-0.4c0,4.4,0,8.8,0,13.2
		C303.5,416.7,303,416.7,302.5,415.9z"/>
	<path class="st2" d="M289.3,411.5c-2.3-1.9-1.1-5.3-3-7.4c-1.2-1.2-1.4-2.6-1-4.2c1.3-2.5,1.5-6,5.5-6.1c0,2,0,3.9,0,5.9
		C289.6,403.5,288.9,407.4,289.3,411.5z"/>
	<path class="st0" d="M320.2,412.9c-1-0.5-2-1-2.9-1.5c-0.2-5.5,0.3-10.9,1.5-16.2c1.2-0.6,1.4-1.7,1.5-3c0.1-0.9,0.2-1.9,0.4-3.7
		c1.8,3.1,0.9,5.7,1.1,8.1c-1.1,4,1.7,5.7,4.4,7.4C323.6,406.7,320.4,408.8,320.2,412.9z"/>
	<path class="st1" d="M279,343.8c-2.3-0.9-2.7-6-4.4-4.5c-3.6,3.2-9.7,0.6-12,6.1c-1,2.4-0.4,5.4-2.7,7.2c-0.3,0-0.7,0-1,0
		c-5.5-2.9-2.1-6-0.2-9.1c0.7-1.1,1.2-2.3,1.6-3.6c1.2-3.5,0-7.6,2.7-10.7c1.9-1.9,4.6-3.4,3.9-6.8c0.7-1.4,2-1.8,3.4-1.8
		c0.7,0.1,1.4,0.3,2,0.5c2.6,1.9,5.8,2.9,8.8,4.2c1,0.5,2.4,1,4,2.2c1.8,1.3,2.9,2.8,3.6,3.9c0.2,1.2,0.2,2.8-0.6,3.4
		c-0.3,0.2-0.7,0.3-1.3,0.2c-5.3-0.9-5.9,2.4-6.3,6.1C280.2,342.2,279.7,343.1,279,343.8z"/>
	<path class="st0" d="M259.6,393.9c-0.8-0.1-1.5-0.2-2.3-0.3c-1.8-0.9-2.4-2.6-2.2-4.2c0.4-3.7-2.4-0.2-3-1.5
		c-1.6-1.9-2.1-4.3-2.6-6.6c-0.1-0.7-0.2-1.4-0.2-2c-0.1-1.3-0.1-2.7-0.3-4c0.3-6,2.8-7.8,7.9-5.9c1.6,0.6,3.1,1.3,4.5,2.4
		c0.5,0.5,1,0.9,1.4,1.4c0.2,3.4,3.4,6.9,0,10.3c-0.2-0.3-0.4-0.5-0.5-0.5c-0.2,0-0.2,0-0.2,0.1c0.1,1.6-0.5,3.4,0.7,4.8
		C262.2,390.2,261.4,392.3,259.6,393.9z"/>
	<path class="st2" d="M270.2,392.3c0-0.5,0-1,0-1.5c-1.3-0.7-2.7-1.2-3-2.9c1.1-4.2,1-8.5,4-12.5c2.4-3.1,2.1-8.2,4.3-12.4
		c0,5.3,0,10.6,0,16.2c1-0.6,1.6-0.7,1.7-0.9c0.2-0.7,0.2-1.4,0.2-2.2c3.6-0.3,2.6,3.1,4,4.7c0.5,0.9,0.9,1.8,1.1,2.8
		c0.2,1.7-0.2,3.4-0.4,5c-0.2,1.4-0.5,2.7-1.7,3.6c-7.8-2-2.6,5.4-5.9,7.6c0-6.9,0-13.2,0-19.5c0-0.6,0-2.5-1.2-0.6
		c-0.4,0.5-0.1,1.4-0.2,2.1c-1.5,2.4-0.4,5.1-0.8,7.7C272.2,391,272.5,392.7,270.2,392.3z"/>
	<path class="st2" d="M293.7,362.9c-1.9-4.2-2.9-8.6-3-13.2c0-2.1-1.1-3.8-2.9-4.8c-1.5-0.8-2.3,0.5-2.7,1.6
		c-0.7,2.1-0.4,3.5,2.3,4.2c1.4,0.3,0.9,1.3-0.9,3.7c-1.2,1.6-1.5,3.8-2.3,6c-2.2-2.9,1.4-5.5-0.8-8.4c-2.9,1.5-0.4,4.6-2.2,6.1
		c-3.4-5.8,1.9-10.5,2.1-15.9c0.8-1.5,2.1-2.2,3.8-2.5c7,0.5,9.2,5.1,9.8,11.2c0.3,3.4-1,6.6-1,10
		C295.7,362.3,295.2,363.2,293.7,362.9z"/>
	<path class="st0" d="M280.5,392.3c0-1.5,0-2.9,0-4.4c3.8-1.6,4.5,1,4,3.5c-0.9,4.4,2.2-1.4,1.9,0.9l0,0c2,2.5,1,4.9,0,7.4
		c0,1.5,0,2.9,0,4.4c-3.1,2.2,0.2,6.6-2.9,8.8l0,0c-1.3-1.4-2.3-3-2.8-4.9c-0.9-3.8,0.2-7.5-0.2-11.3
		C280.5,395.3,280.5,393.8,280.5,392.3z"/>
	<path class="st1" d="M264.4,370.2c-0.4-7.7,1-15.1,4.5-22.2C264.4,354.9,273.7,364.1,264.4,370.2z"/>
	<path class="st1" d="M281.9,383.5c-0.5-0.5-1-1-1.5-1.5c-1.1-2-1.1-3.9,0-5.9c2.5-1.5,0.5-4.8,3.3-7.1c1.7,7.5,3,14.5,2.6,21.8
		c-4.3-1.2-2.1-5.1-3.2-7.7c0-0.1-0.5-0.1-0.6-0.1C282.2,383.1,282.1,383.4,281.9,383.5z"/>
	<path class="st2" d="M281.9,383.5c0.1-0.9-0.1-2.3,0.4-2.7c1.4-1.1,1.3,0.7,1.7,1.3c1.9,2.6-0.6,6.4,2.3,8.7c0,0.5,0,1,0,1.5
		c-0.7,0.9-1.3,1.9-2.2,3.1c-2.1-2.1,1.2-7.1-3.7-7.5C281,386.5,281.5,385,281.9,383.5z"/>
	<path class="st1" d="M259.9,352.6c0.4,1.1-0.8,3.7,1.4,3.2c4.6-1,3.5,0.4,1.5,2.7c-1.9,1.8,0.6,5.2-2.4,6.5c-0.8,0.1-1.5,0-2.2-0.4
		c-0.5-0.6-0.9-1.2-1.2-2C257.1,359.1,254.4,354.7,259.9,352.6L259.9,352.6z"/>
	<path class="st1" d="M293.7,377.6c-1,3.4,2,6.9,0,10.3c-3.6-4.4-2.9-9.6-2.9-14.7C294.2,373.1,293.7,375.6,293.7,377.6z"/>
	<path class="st1" d="M282,408.5c1.7,1.1,1.4,2.8,1.5,4.4c-1,0-2,0-2.9,0c-0.6-3.4-7-6-1.5-10.3C282.6,403.3,279.1,407.5,282,408.5z
		"/>
	<path class="st2" d="M282,408.5c-4.4-0.3-1.3-4.3-3-5.9c0.2-2-0.7-4.3,1.5-5.9C283.4,400.4,281.3,404.6,282,408.5z"/>
	<path class="st2" d="M293.7,377.6c-1-1.5-2-2.9-2.9-4.4c0.5-3-1.2-6.3,1.5-8.8c2.4,1.3,0.2,5.1,3.2,6.1
		C297.2,373.5,296.9,375.9,293.7,377.6L293.7,377.6z"/>
	<path class="st1" d="M286.4,340.9c-0.6,1.2-1.7,1.4-2.9,1.5c-1.5,0.5-3,1-4.4,1.5c0-1,0-2,0-2.9c0.7-2.1,1.4-4.3,4.3-3.9
		C285.4,337.3,286.8,338.4,286.4,340.9z"/>
	<path class="st3" d="M265.7,401.2c-1,0.5-1.9,0.9-2.9,1.4c0.6-2.6-0.8-4.4-2.6-5.9c2.2-0.7,4.6-0.3,6.5-2.1
		C267.8,397.4,266.6,399.3,265.7,401.2z"/>
	<path class="st1" d="M259.9,364.4c2.4-1.3,0.6-4.6,3-5.9c0,4.9,0,9.8,0,14.7h-0.7h-0.7c-0.9-1.6-2.4-2.8-2.8-4.7
		C258.3,366.9,258.8,365.6,259.9,364.4z"/>
	<path class="st1" d="M286.4,399.7c0-2.4,0-4.9,0-7.4c0.8-1.1,1.5-2.2,2.2-3.2c1.6,1.2,2,2.9,2.2,4.7
		C289.3,395.8,287.8,397.7,286.4,399.7z"/>
	<path class="st2" d="M287.4,370.8c2.9,3.3,1.8,6.6,1.2,9.8C288.4,377.5,285.3,374.9,287.4,370.8z"/>
	<path class="st2" d="M270.2,392.3c3.4-2.8-0.4-7.5,2.9-10.3c0,3.1,0.1,6.2-0.1,9.3C272.9,393.2,271.8,393.9,270.2,392.3z"/>
	<path class="st0" d="M293.7,362.9c0.5-0.5,1-1,1.5-1.5c2.2-0.7,2.7,1.2,3.6,2.5c0.3,0.6,0.4,1.3,0.5,2c-0.1,1.5-0.4,3.1-2.3,3
		c-1.9-0.2-2.8-1.7-3.2-3.5c0-0.4-0.1-0.7-0.1-1C293.7,363.9,293.7,363.4,293.7,362.9z"/>
	<path class="st2" d="M280.5,376.2c0,2,0,3.9,0,5.9c-2.4-1.2-0.5-4.6-2.9-5.9c0.6-0.7,1.1-1.8,1.7-1.9
		C280.5,374,280.3,375.3,280.5,376.2z"/>
	<path class="st0" d="M267.2,387.9c1.4,0.5,2.4,1.5,3,2.9c-1.2,0.4-2.5,1.4-3.6-0.2C265.8,389.6,266,388.6,267.2,387.9z"/>
	<path class="st2" d="M262.8,387.9c-2.5-2.2-1-4.9-1.5-7.6c2.1,0.8,1.4,2.2,1.6,3.2C262.8,385,262.8,386.4,262.8,387.9z"/>
	<path class="st0" d="M293.7,370.3c-3.2-1.3-0.7-4-1.5-5.9c0.5,0,1,0,1.5,0l0,0C294.7,366.4,295.2,368.3,293.7,370.3z"/>
	<path class="st0" d="M294.8,313.2c3.8,1.9,7.4,3,11.7,0.9c2.8-1.4,6.1-1.6,8.9,0.8c2.3,2.7,4.7,5.5,3.8,9.5c-0.3,0.6-0.8,1-1.5,1.3
		c-2.7,0-4.4-3.7-7.6-2c-8.9-0.2-17.4,2-25.8,4.4c-1.1-0.1-2-0.4-2.9-1c-1.5-4.3,2.6-7.1,3-10.9
		C287.9,315.2,291.4,314.2,294.8,313.2z"/>
	<path class="st0" d="M290.1,266.2c-0.9,0.5-1.8,1-2.6,1.6c-0.5,0.5-0.9,0.5-1.3-0.1c-3.5-1.4-7-2.7-10.5-4.1
		c-4.2,1.1-8.4,0-12.5,0.1c-1.2-0.1-2.3-0.4-3.4-0.6c-2.5-1-3.8-2.7-3-5.5c10.7-3.7,20.7-0.3,30.8,3c1.9,0.1,3.1,1.3,3.8,3
		C291.3,264.7,291.2,265.7,290.1,266.2z"/>
	<path class="st0" d="M315.4,259c4.1-2.9,8.8-0.9,13.1-1.7c2.5,0.9,3.7-2.1,6-2c2,0.4,4-0.6,5.9,0.6l-0.2,0.5c0.5,1.4,2.1,1.3,3.1,2
		c1.1,0.9,1.5,2.1,1.3,3.5c0.6,1,1.2,1.9,1.9,2.9c0.3,0.8,0.1,1.4-0.5,1.9c-0.9,0.3-2,0.6-2.8,0.1c-6-4.2-12.6-4.1-19.4-3.3
		C320.8,262.4,316.5,263.5,315.4,259z"/>
	<path class="st0" d="M284.5,316.2c2.4,4.4-1.4,6.9-2.9,10.1c-0.1,1.3-0.8,2.2-2,2.8c-3.1,1.1-6.2,1-9.4,0.5
		c-0.8-0.2-1.5-0.6-2.1-1.1c-0.6-1.1-0.7-2.2,0.2-3.3C274.8,324.1,279,319,284.5,316.2z"/>
	<path class="st0" d="M315.4,259c2.6,2.2,6.1,1.8,9.1,3.1c0.2,0.7,0,1.4-0.4,1.9c-3.5,2.7-7.9,2.5-11.9,3.6l0.1-0.1
		c-3.2,2.2-4.7-0.3-5.1-2.5c-0.7-3.6,1.5-5.8,5.2-6.2C313.4,258.8,314.4,258.9,315.4,259z"/>
	<path class="st3" d="M256.6,257.7c1,1.4,1.9,2.8,2.9,4.2c0.6,2.8-1.3,2.6-3.1,2.6c-2.2,0.8-4.1-0.3-4.3-2.1
		C251.9,259.7,254.4,258.6,256.6,257.7z"/>
	<path class="st0" d="M243.4,260.4c1-0.5,1.9-1,2.9-1.5c-0.1,2.9-0.2,5.8-0.3,8.6c-0.5,0.5-1.1,0.7-1.8,0.3
		C242.1,265.6,239.2,263.4,243.4,260.4z"/>
	<path class="st2" d="M348.5,228c0.3-0.1,0.6-0.2,0.9-0.3c5.2,1.2,3.7,3.9,1.5,6.7c-0.2,0.3-0.2,0.7-0.1,1.1
		C348.7,233.4,349.2,230.5,348.5,228z"/>
	<path class="st2" d="M244.7,267.8c0.4-0.1,0.9-0.2,1.3-0.2c0,1.4,0.1,2.9,0.1,4.4c-0.5,0.2-1,0.4-1.5,0.6
		C241.7,270.9,241.1,269.4,244.7,267.8z"/>
	<path class="st3" d="M341.7,256.6c0.5,0.8,0.9,1.6,1.4,2.4c-1.5-0.2-2.9-0.4-4.4-0.6c0.5-0.7,1-1.3,1.5-2
		C340.7,256.4,341.2,256.4,341.7,256.6z"/>
	<path class="st3" d="M331.6,255.8c0.5,0.1,1,0.3,1.5,0.4c-1.2,1.5-2.2,4-4.5,1.1C329.6,256.8,330.6,256.3,331.6,255.8z"/>
	<path class="st2" d="M292.3,213.3c-0.3-0.4-0.5-0.9-0.8-1.3c2-1.8,4-3.2,6.8-0.6C296.2,212.1,294.2,212.7,292.3,213.3z"/>
	<path class="st1" d="M340.4,210.4c-1,0.5-2,1-3,1.5c0-1.5,0-2.9,0-4.4c-0.5-1-1-2-1.5-2.9c6.1-4.7,3.9-11.5,4.4-17.7
		c3.7,3.8-0.7,9.4,2.9,13.2c0.8,0.7,1,1.7,0.9,2.7C342.9,205.3,343.4,208.7,340.4,210.4z"/>
	<path class="st1" d="M328.6,206c1,0,2,0,2.9,0c-1.8,1.7-0.2,4.4-1.8,6.7C327.8,210.5,329,208.1,328.6,206z"/>
	<path class="st2" d="M340.4,210.4c1.4-2.3-0.1-5.7,2.9-7.4c2.9-3.4,8.5-6.2,3-11.8c0.1-2.1-0.7-4.4,1.5-5.9
		c2.3,1.6,5.6,2.1,5.9,5.7c0.7,4.9-4.6,9.5-0.7,14.9c1,1.4-2.1,4.3-3.3,3.8C346.3,208.3,343.6,211.1,340.4,210.4z"/>
	<path class="st2" d="M346.3,191.3c2.9-1.2,5.1-3,4.1,2.9c-0.9,4.9-1.7,8.2-7,8.9c0-1,0-2,0-2.9C343,196.7,345,194.1,346.3,191.3z"
		/>
	<path class="st1" d="M334.5,189.8c1,0,2,0,2.9,0c0.2,5-2.4,9.7-1.5,14.7c-2.5-2.1-1.1-4.9-1.5-7.4
		C333.4,194.7,333.4,192.3,334.5,189.8z"/>
	<path class="st2" d="M334.5,189.8c0,2.4,0,4.9,0,7.4c-2.8-3.1-0.9-6.9-1.5-10.3C334.2,187.5,334.5,188.6,334.5,189.8z"/>
	<path class="st2" d="M239.5,236.8c-1.7-2.3,0.1-4.8-0.7-7.2C241.9,231.7,241.5,234.2,239.5,236.8z"/>
	<path class="st0" d="M350.8,234.5c0-2.3,1.9-5.1-1.5-6.7c1.1-7.1,7.3-1.5,10.2-4.1c1.2,0.5,0.9,1-0.1,1.5c-0.2,1.5-3.4,3.1,0.2,4.4
		c-0.1,0.5-0.3,1-0.5,1.5c-1.4,2.1,0.2,4.8-1.1,6.9c-3.8,3.4,0.9,8.8-2.8,12.3c-1.5-0.4-2.1-1.7-2.7-3
		C351.6,243.1,353.2,238.5,350.8,234.5z"/>
	<path class="st2" d="M347.7,222.2c1.1-3.8,1.2-8.1,6.7-10.3C353.1,216.6,354.8,222.1,347.7,222.2
		C347.7,222.2,347.7,222.2,347.7,222.2z"/>
	<path class="st2" d="M360.5,228.2c-0.1,0.3,0,0.7,0.3,0.9c-0.4,0.1-0.8,0.3-1.2,0.4c-4.4-1.3-1.4-2.9-0.2-4.4
		C359.5,226.2,359,227.6,360.5,228.2z"/>
	<path class="st0" d="M317.3,336.4c-2.5-2.1-4.9-0.2-7.4,0c1.1-1.9,1.5-4.4,4.4-4.4c1.5-0.3,3.1-0.7,4.7-1
		C320.3,333.6,316.6,334.3,317.3,336.4z"/>
	<path class="st0" d="M326.1,321.7c1,1.5,1.9,3,2.9,4.5C323.5,327.6,327.1,323.2,326.1,321.7z"/>
	<path class="st0" d="M327.5,352.6c1.7,1,3.4,2,2.5,4.6C328,356.3,327.8,354.4,327.5,352.6C327.5,352.6,327.5,352.6,327.5,352.6z"/>
	<path class="st0" d="M287.9,331.7c0.9,0.2,1.9,0.4,2.8,0.6c-2.2,7.3,6.6,1.6,6.9,6c4.7-3.6,7.4,0.8,10.8,2.6c-1,1-2,2-3,2.9
		c0.4,2,0.3,4.4-1.1,5.6c-4.6,4-5.6,9.4-6.2,15c-1-1-2-2-2.9-2.9c-2.8-2.1-0.4-4.4-0.1-6.6c1.1-7.7-1.2-11.5-8.7-14
		c-2.5-4.6-4.9-2.7-7.4,0c0.3-5.2,0-11,8.2-7.3C287.5,333,287.7,332.3,287.9,331.7z"/>
	<path class="st0" d="M317.2,364.4c-0.5,1-1,2-1.5,3c-1,0-2,0-2.9,0c-0.2-0.1-0.5-0.2-0.7-0.2c-1.2-0.3-1.9,0.8-2.9,1
		c-1,0.2-1.9-0.1-2.7-0.7c-0.3-0.6-0.5-1.3-0.6-2c0.3-2.5,0.7-5.1,0.5-7.7c0.1-3.5-0.4-7,0.5-10.5c0.3-0.8,0.8-1.4,1.4-1.9
		c1,0,2,0,2.9,0c0,1.5,0,2.9,0,4.4c-0.5,3.6,3.8,6.4,1.5,10.3C314.3,361.4,315.8,362.9,317.2,364.4z"/>
	<path class="st2" d="M307,396.8c-2.4-1.3-0.6-4.6-2.9-5.9l0,0c-1.8-3.2-0.6-5.6,2-7.6c3.3,0.7,2.3,3.3,2.4,5.4
		c0.4,0.3,0.7,0.4,1.1,0.1c0.6-0.4,1.2-0.7,1.9-0.7c2.1,1.5,1.3,3.9,1.5,5.9c-0.5,1.5-1,3-1.5,4.4
		C309.3,399.6,309.5,394.2,307,396.8z"/>
	<path class="st0" d="M311.4,387.9c-0.5,0.5-1,1-1.5,1.5c-3-5.7-1.8-11.6-0.4-17.4c0.6-1.6,0.9-3.5,3.3-3.2
		C314.7,375.4,310.4,381.4,311.4,387.9z"/>
	<path class="st0" d="M312.8,368.8c-1.2,0.6-1.4,1.7-1.5,2.9c-0.8,0.9-1.3,2.1-2.8,1.8c-0.7-0.3-0.5-1.4-1.4-1.6
		c0.5,0.3,0.5,0.7,0.2,1.2c-0.5,0.4-1.1,0.6-1.7,0.5c-0.5-0.4-0.9-0.9-1.2-1.5c-0.4-2.2,0.1-4,2.5-4.8c1,0,2,0,3,0
		c1-0.9,2-0.9,2.9,0l0,0C312.8,367.8,312.8,368.3,312.8,368.8z"/>
	<path class="st1" d="M312.9,360c1-3.6-3.6-6.5-1.5-10.3C313,352.9,316.1,356,312.9,360z"/>
	<path class="st1" d="M318.7,395.3c1,5.5,0.9,11-1.5,16.2c-3.7-5.4-0.2-10.8,0-16.2C317.7,395.3,318.2,395.3,318.7,395.3z"/>
	<path class="st2" d="M307,367.3c-1,1.8-1.7,3.8-1.5,5.9c-4.9-1.3-2-4.9-2.2-7.3c-0.8,2.4-0.6,5.1-0.9,7.9c-0.2,1.5-1,2.9-2.8,2.8
		c-2.2-0.1-2.6-1.9-2.6-3.6c0-2.5,2.2-4.3,1.8-6.9c0.9-3.4,3.7-6,3.8-8.4c0,1.6-2.4,3.6-2.9,6.3c-0.5,0.7-1,0.8-1.7,0.3l0,0
		c-5.1-9.6,5.4-13.6,7.4-20.6c1.2,0,2.3,0.3,3,1.5c0,0.5,0,1,0,1.5c-0.5,0.5-0.9,1-1.2,1.6c-0.6,3.8-0.1,7.6-0.3,11.4
		c0.4,2-0.9,4.1,0,6.1C307,366.4,307,366.9,307,367.3z"/>
	<path class="st1" d="M349.7,292.3c-0.1-1-0.1-2-0.2-2.9c-0.8-1.8,0.1-3.2,0.8-4.8c1-1.3,1.5-3.2,3.8-2.5l0.5-0.1
		c0,1.5,0.1,3,0.1,4.5c1.7,3.3,0.6,6.9,0.7,10.3c-1.3-1-1.1-2.6-1.4-4C353,288.4,351.2,291.1,349.7,292.3z"/>
	<path class="st0" d="M352.5,326.1c-0.5,0-1,0-1.5,0c-1.3-2.3-4.1-4.3-1.5-7.4C357,318.7,350.9,323.9,352.5,326.1z"/>
	<path class="st3" d="M349.6,318.8c0.5,2.5,1,4.9,1.5,7.4c-1-0.1-2-1.6-2.9,0c-4.1-1.7-2.1-4.4-1-6.9c0.3-0.2,0.7-0.3,1-0.5
		C348.6,318.8,349.1,318.8,349.6,318.8z"/>
	<path class="st0" d="M345.2,315.9c0.5-1.5,1-3,1.5-4.4c2.4,2.1,1.1,4.9,1.5,7.4l0,0c-2.6,1-1.7-1.8-2.8-2.5
		C345.4,316.2,345.2,315.9,345.2,315.9z"/>
	<path class="st3" d="M345.4,316.2c0.9,0.9,1.8,1.7,2.8,2.6c-1,2.4-2.8,4.9,0,7.4c-0.5,1-1,2-1.5,2.9c-3.8,0.7-3.1-2.1-2.4-3.7
		C345.5,322.3,344.9,319.2,345.4,316.2z"/>
	<path class="st1" d="M307,396.8c3-3.9,2.9,1.1,4.4,1.5c-0.1,4.5,2.5,9.5-2.8,13.4C308.3,406.5,308.9,401.4,307,396.8z"/>
	<path class="st0" d="M299.6,364.4c-0.3,3.6-0.5,7.3-0.9,12.5c3.7-4.1,1-8.6,4.5-11.2c2,2.1-0.5,5.8,2.3,7.5l0,0
		c1.7,1.9,1.6,3.9,0.5,6c-2,2.4-2.5,5.5-4.1,8.1c-0.3,0.2-0.5,0.4-0.8,0.6c-2.7,1.4-3.6,0.1-4.6-2.4c-1-2.6-0.5-5.8-2.8-7.9
		c1-2.4,2.8-4.9,0-7.4c0-2,0-3.9,0-5.9c1.7,0.6,1.5,3.7,3.8,3.1c0.4-0.1,0.4-2,0.6-3.1C298.6,364.4,299.1,364.4,299.6,364.4
		C299.6,364.4,299.6,364.4,299.6,364.4z"/>
	<path class="st1" d="M304,379.1c2.1-1.5,1.3-3.9,1.5-5.9c0.5,0,1,0,1.5,0c2.2,3.4,2.1,6.8,0,10.3c-2,2.1-2.3,4.8-2.9,7.4
		c-1.9-0.1-2.9-1-2.9-2.9l0,0C302.8,385.2,302.9,382,304,379.1z"/>
	<path class="st1" d="M295.2,399.7c2.7,3.2,1.1,6.7,0,10.1C295.2,406.5,295.2,403.1,295.2,399.7L295.2,399.7z"/>
	<path class="st2" d="M261.4,340.8c-0.1,1.2-0.3,2.4-1.5,3c-4.3,2-3.9,8.6-9.1,9.7c-5.9-1.2-5.9-6.1-3.9-9.3
		c2.7-4.1,0.6-13.3,10.2-11.2c1.3,0.9-0.4,3.7,2.5,3.6C263.7,336.3,261.9,338.9,261.4,340.8z"/>
	<path class="st0" d="M251.1,352.6c3.2-2.7,3.9-7.9,8.8-8.8c-1,2.9-5.1,5.9,0,8.8c-3,3.6-0.8,7.9-1.5,11.8c-4.3-0.1-2.5-4.6-4.6-6.4
		c-1.6,2.3-1.3,5.9-4.8,6.8c-1.1,0-2-0.5-2.6-1.4c-0.3-0.6-0.5-1.3-0.5-2c0.3-2,0.6-4,1.4-5.9C248,354,249.9,353.7,251.1,352.6z"/>
	<path class="st1" d="M261.4,340.8c-0.2-1.1,0.3-3.1-0.9-2.9c-1.3,0.2-1.4,4.1-4,1.5c-2-2-0.4-4,0.4-5.9c-0.9-4,1.2-6.7,4-9.1
		c0.7-0.2,1.4-0.2,2.1,0c1.3,1.3,2.3,2.8,1.3,4.8C261.4,332.5,264.5,337.4,261.4,340.8z"/>
	<path class="st0" d="M273.1,332c0.1-2.2-0.1-4.8,3.4-4c1.5,0.3,2.7,1.7,2.3,3.2c-0.9,2.8-3,3.2-5.6,2.2c-0.5-0.3-0.7-0.6-0.5-1
		C272.8,332.2,272.9,332,273.1,332z"/>
	<path class="st2" d="M273.1,332c0,0.5,0,1,0,1.4c-3.6-0.3-2.6,5.4-6.4,4.8C266.9,331.3,268.5,329.7,273.1,332z"/>
	<path class="st2" d="M264.3,329.1c-0.5-1.4-1-2.8-1.5-4.1c0.4-1.5,2.1-0.9,2.9-1.8c0.5,0,1,0,1.5,0
		C270.8,327.4,267.1,328,264.3,329.1z"/>
	<path class="st0" d="M248.3,364.4c2.3-1.1,2.5-3.3,3-5.5c0.4-1.8,1.5-3.5,2.7-6c2.9,3.9,1.7,8.5,4.5,11.5l0,0
		c0.8,0.7,0.7,1.6,0.5,2.5c-0.2,0.9-2.2,2.8,1,1.9c0.5,1.5,1,2.9,1.5,4.4c-1.9-0.9-3.7-2.3-5.7-2.6c-3.1-0.5-7-1-4.7,4.5
		c-3,0.8-3.8-1.2-4.5-3.4C246.1,369,245.9,366.4,248.3,364.4z"/>
	<path class="st2" d="M259.9,368.8c-6.1,0.4,0.5-3.4-1.5-4.4c0.5,0,1,0,1.5,0C259.9,365.9,259.9,367.3,259.9,368.8z"/>
	<path class="st0" d="M318.3,325c0.9-3.9-3.8-6.2-3-10.1c4.3-0.5,6.6,3.6,10.2,4.6c2.2-0.4,3.3,1.1,4.5,2.5c0.4,0.3,0.9,0.4,1.4,0.2
		c1.8,1.7,4.5-0.3,6.2,1.4c-0.2,4.6-3.9,5.1-7.1,6c-1.9,0.2-3.7,0.2-5.5,0c-0.7-0.1-1.4-0.3-2.1-0.5C321,328.3,319,327.5,318.3,325z
		"/>
	<path class="st2" d="M352.5,247.3c0.9,1,1.8,2,2.7,3c-0.1,0.5,0,1,0.3,1.4c0.3,1.5,0.9,3-0.5,4.3c-0.8,0.2-1.4,0.6-0.9,1.6
		c0.1,2,1,4-0.7,5.7C351.1,258,352.7,252.6,352.5,247.3z"/>
	<path class="st2" d="M358,238c-0.6-2.5-1.3-5,1.1-6.9C358.8,233.3,360.7,236,358,238z"/>
	<path class="st0" d="M316.9,324.8c-0.5,0.1-1,0.2-1.5,0.4c-1.4-1.1-3.8-0.8-4.6-2.9C313.9,320.4,315.4,322.6,316.9,324.8z"/>
	<path class="st2" d="M307,346.8c0.5,0,1,0,1.5,0c0,3.9,0,7.9,0,11.8c-0.9,0.5-1.6,0.3-2-0.6C306.4,354.2,305.5,350.4,307,346.8z"/>
	<path class="st2" d="M307,358.5c0.5,0,1,0,1.5,0c0.2,2.6-0.1,5.1-1.5,7.4c-2.1-1.6-1.3-3.9-1.5-5.9
		C306,359.5,306.1,358.6,307,358.5z"/>
	<path class="st2" d="M312.8,367.3c-1,0-2,0-2.9,0c0.2-1.3,0.2-3.2,1.8-3.2C313.6,364.2,312.5,366.2,312.8,367.3z"/>
	<path class="st2" d="M308.4,373.2c1-0.5,2-1,2.9-1.5c-1.4,5.8-1.8,11.7-1.5,17.6c-0.5,0.5-1,1-1.5,1.5
		C307.3,385,307.2,379.1,308.4,373.2z"/>
	<path class="st0" d="M308.4,373.2c0,5.9,0,11.8,0,17.6c-3-2-0.8-4.9-1.5-7.4c0-3.4,0-6.8,0-10.3c0.2-0.6,0.5-1.3,0.7-1.9
		C307.9,371.9,308.2,372.6,308.4,373.2z"/>
	<path class="st2" d="M299.6,364.4c0.1-3.9,1.4-7.4,3.6-11C305.4,358.6,302.9,361.7,299.6,364.4
		C299.6,364.4,299.6,364.4,299.6,364.4z"/>
	<path class="st2" d="M307,358.5c-0.5,0.5-1,1-1.5,1.5c0.6-4.4-1.5-9.1,1.5-13.2C307,350.7,307,354.6,307,358.5z"/>
	<path class="st1" d="M351.1,280.6c0.9-0.5,1.9-1,2.8-1.4c0,0.9,0,1.9,0,2.9c-0.9,1-1.8,1.9-2.6,2.9
		C351.3,283.5,351.2,282.1,351.1,280.6z"/>
	<path class="st2" d="M304,379.1c0.1,3.3-0.1,6.5-2.9,8.8C301.2,384.7,301.9,381.7,304,379.1z"/>
	<path class="st0" d="M242,317.3c1.9-4.8-0.2-10,1.3-14.8c0.3-0.1,0.6-0.2,1-0.3c2.5,0.7,4,2.5,5,4.8c-0.3,4.9,0.5,9.1,6.3,10.3
		c1.4,0.5,2.7,1.1,4.1,1.6c3.2,1.3,2.6,3.6,1.7,6.1c-1.5,2.9-3,5.7-4.4,8.6c-8.4-0.4-5.4,8.2-9,11.8c-1.1,1.1-1.3,6.3,3.1,7.4
		c-0.6,1.4-1.6,2.4-3,3c-2.6,1.5-3.3,0-3.5-2.2c1.3-4.1-0.2-7.8-1.5-11.6c0.1-1.8-0.7-3.7,0.7-5.3c2.5-1.9-1.2-4,0.2-5.9
		c0.6-1.8,1.2-3.5,2.1-5.1c0.1-0.4,0.2-0.6,0.2-0.6c0.3-0.5,0.1-0.6-0.2,0.1c-0.4,0.9-0.8,1.8-2,1.5c-1.4-1.2-0.8-2.5-0.4-3.9
		c-1.8-0.7-1-2.5-1.5-3.7c-0.4-0.3-0.5-0.7-0.4-1C241.7,317.5,241.9,317.3,242,317.3z"/>
	<path class="st2" d="M255.6,317.3c-7.4,0.8-8.8-1.1-7.5-10.3c1-4.3-3.9-4.1-5.1-6.8c0.1-2.1-0.3-4.2,0.1-6.3
		c1.2-1.7,2.8-2.4,4.9-1.6c1.4,3.5,2.7,7,4,10.5c0.1,1.4-0.8,2.9,0.4,4.3c1.4,2.9,1.2,6.3,2.9,9.2
		C255.3,316.6,255.4,316.9,255.6,317.3z"/>
	<path class="st0" d="M245.4,352.7c-0.1,1.9,0.8,2.8,2.7,3c0,2,0.7,4.2-1.2,5.8c-0.8-1.6-1-3.5-2.8-4.5c0.1-1.4,0.1-2.9,0.2-4.3
		l0.6-0.4L245.4,352.7z"/>
	<path class="st2" d="M245.4,352.7l-0.5,0h-0.5c-0.2-2.5-0.4-4.9-0.7-7.4c-0.7-1.1-0.8-2.1,0.4-3
		C245.1,345.7,247.6,348.9,245.4,352.7z"/>
	<path class="st3" d="M243.5,322.5c0.2,1.4,0.3,2.8,1.7,3.6c0.5-0.7,1-0.7,1.4,0c-0.9,1.5-1.8,2.9-2.7,4.4
		C243.7,327.9,241.2,325.3,243.5,322.5z"/>
	<path class="st1" d="M243.9,293.8c-0.5-5.4-1.4-10.9,1.4-16.1l0,0.1c4.7,2,1.7,5.7,1.8,8.6c0.4,1.9,1.7,3.7,0.9,5.9
		C246.6,292.8,245.3,293.3,243.9,293.8z"/>
	<path class="st1" d="M243.9,302.7c0-0.5,0-1,0.1-1.6c4,0.1,6,1.6,4.2,5.9C246.7,305.6,245.3,304.1,243.9,302.7z"/>
	<path class="st2" d="M246.6,326.1l-0.7,0h-0.7c0-2,0-4,0-6.5C248.5,321.9,247.8,324,246.6,326.1z"/>
	<path class="st3" d="M247.2,332.9c-0.6-2.9,0.1-4.4,1.8-5.6C250,329.5,248.7,330.9,247.2,332.9z"/>
	<polygon class="st0" points="256.5,368.2 258.9,366.9 259.2,369.9 	"/>
	<polygon class="st0" points="275.9,398.6 276.8,395.3 280.4,395.5 280.5,396.8 279.4,398.1 	"/>
	<polygon class="st0" points="319.1,389.8 319.7,391.5 320.2,392.3 320.3,391.5 	"/>
	<polygon class="st2" points="318.9,375.5 319.2,376.1 319.7,376.2 320.1,375.9 	"/>
	<polygon class="st2" points="320,376.2 319.6,376.2 319.5,376.1 319.9,376 	"/>
	<polygon class="st1" points="323,375.9 323.6,376.6 322.8,376.5 	"/>
	<polygon class="st0" points="298.7,376.3 298.7,376.9 299.1,376.4 	"/>
	<path class="st0" d="M261.8,355.5"/>
	<path class="st2" d="M311.3,323.5"/>
</g>
</svg>
