<?xml version="1.0" encoding="utf-8"?>
<!-- Generator: Adobe Illustrator 19.1.0, SVG Export Plug-In . SVG Version: 6.00 Build 0)  -->
<svg version="1.1" id="Calque_1" xmlns="http://www.w3.org/2000/svg" xmlns:xlink="http://www.w3.org/1999/xlink" x="0px" y="0px"
	 viewBox="0 0 3688.1936035 133.3282013" style="enable-background:new 0 0 3688.1936035 133.3282013;" xml:space="preserve">
<style type="text/css">
	.st0{fill:#D1D3D4;}
</style>
<g>
	<path class="st0" d="M33.6589928,36.8979759c6.4130859,0,12.4150391,1.2573242,18.0053711,3.7700195
		c5.5898438,2.5146484,10.4648438,5.9375,14.6249962,10.2700195c4.159668,4.3344727,7.4526367,9.3823242,9.8798828,15.1450157
		c2.425293,5.7646484,3.6401367,11.9394531,3.6401367,18.5249023c0,6.5874023-1.1704102,12.762207-3.5102539,18.5249023
		c-2.3398438,5.7646484-5.5698242,10.7900391-9.6850586,15.0800781c-4.1171837,4.2900391-8.9921837,7.6923828-14.6249962,10.2050858
		c-5.6347656,2.5146484-11.7446289,3.7700195-18.3300781,3.7700195H0.3792073V36.8979759H33.6589928z M32.0994225,119.9677963
		c4.8525391,0,9.3149414-0.9321289,13.3896484-2.7988281c4.0727539-1.8666992,7.5830078-4.4057617,10.5302734-7.6191406
		c2.9453125-3.2133789,5.2426758-6.9672852,6.8896484-11.265625c1.645504-4.2978516,2.470211-8.878418,2.470211-13.7412109
		s-0.824707-9.4414062-2.470211-13.7392578c-1.6469727-4.2983398-3.9648438-8.051754-6.9545898-11.2656212
		c-2.9902344-3.2133789-6.5224609-5.7524414-10.5952148-7.6191406c-4.074707-1.8666992-8.4946289-2.8007812-13.2597656-2.8007812
		H14.2893639v70.8496094H32.0994225z"/>
	<path class="st0" d="M97.0989304,132.058136l38.8701248-95.2900391l38.8696289,95.2900391h-14.1699219l-2.8598633-7.5400467
		h-43.5498123l-2.9902344,7.5400467H97.0989304z M118.9387741,112.2978745h34.0600662L135.9690552,68.618187
		L118.9387741,112.2978745z"/>
	<path class="st0" d="M255.1780396,37.0278587h14.4301758l-38.7402344,95.6801758l-38.7397461-95.6801758h14.4301758
		l24.3095703,59.8002892L255.1780396,37.0278587z"/>
	<path class="st0" d="M303.1482544,36.8979759h13.9101562v95.2900391h-13.9101562V36.8979759z"/>
	<path class="st0" d="M383.8772583,36.8979759c6.4140625,0,12.4160156,1.2573242,18.0058594,3.7700195
		c5.5898438,2.5146484,10.4648438,5.9375,14.625,10.2700195c4.1601562,4.3344727,7.453125,9.3823242,9.8789062,15.1450157
		c2.4257812,5.7646484,3.640625,11.9394531,3.640625,18.5249023c0,6.5874023-1.1699219,12.762207-3.5097656,18.5249023
		c-2.3398438,5.7646484-5.5703125,10.7900391-9.6855469,15.0800781c-4.1171875,4.2900391-8.9921875,7.6923828-14.625,10.2050858
		c-5.6347656,2.5146484-11.7441406,3.7700195-18.3300781,3.7700195h-33.2792969V36.8979759H383.8772583z M382.3186646,119.9677963
		c4.8515625,0,9.3144531-0.9321289,13.3886719-2.7988281s7.5839844-4.4057617,10.53125-7.6191406
		c2.9453125-3.2133789,5.2421875-6.9672852,6.8886719-11.265625c1.6464844-4.2978516,2.4707031-8.878418,2.4707031-13.7412109
		s-0.8242188-9.4414062-2.4707031-13.7392578c-1.6464844-4.2983398-3.9648438-8.051754-6.9550781-11.2656212
		c-2.9882812-3.2133789-6.5214844-5.7524414-10.59375-7.6191406c-4.0742188-1.8666992-8.4960938-2.8007812-13.2597656-2.8007812
		h-17.8105469v70.8496094H382.3186646z"/>
	<path class="st0" d="M541.5667114,90.7177963h34.9707031v14.4301758h-34.9707031V90.7177963z"/>
	<path class="st0" d="M735.5256958,36.5078392c6.5859375,0,12.7832031,1.2573242,18.5898438,3.7700195
		c5.8056641,2.5146484,10.8554688,5.9375,15.1455078,10.2700195c4.2900391,4.3349609,7.6699219,9.425293,10.1396484,15.2748985
		c2.4707031,5.8500977,3.7050781,12.112793,3.7050781,18.7851562c0,6.5874023-1.234375,12.784668-3.7050781,18.5898438
		c-2.4697266,5.8076172-5.8496094,10.8774414-10.1396484,15.2104492
		c-4.2900391,4.3344727-9.3398438,7.7573242-15.1455078,10.2700272c-5.8066406,2.5146484-12.0039062,3.7695312-18.5898438,3.7695312
		c-6.5869141,0-12.7617188-1.2548828-18.5244141-3.7695312c-5.7646484-2.5127029-10.7900391-5.9355545-15.0800781-10.2700272
		c-4.2900391-4.3330078-7.6699219-9.402832-10.140625-15.2104492c-2.4697266-5.8051758-3.7050781-12.0024414-3.7050781-18.5898438
		c0-6.6723633,1.2353516-12.9350586,3.7050781-18.7851562c2.4707031-5.8496056,5.8505859-10.9399376,10.140625-15.2748985
		c4.2900391-4.3325195,9.3154297-7.7553711,15.0800781-10.2700195
		C722.7639771,37.7651634,728.9387817,36.5078392,735.5256958,36.5078392z M735.5256958,119.0581284
		c4.5058594,0,8.7753906-0.90625,12.8056641-2.7197266c4.0292969-1.8120117,7.5400391-4.2739258,10.5292969-7.3818359
		c2.9902344-3.1079102,5.3505859-6.7558594,7.0849609-10.9443359c1.7333984-4.1865234,2.6005859-8.6552734,2.6005859-13.4042969
		s-0.8671875-9.2382812-2.6005859-13.4692383c-1.734375-4.230957-4.0947266-7.9218712-7.0849609-11.0742149
		c-2.9892578-3.1503906-6.5-5.6328125-10.5292969-7.4467773c-4.0302734-1.8115234-8.2998047-2.7197266-12.8056641-2.7197266
		c-4.5068359,0-8.7548828,0.9082031-12.7392578,2.7197266c-3.9882812,1.8139648-7.4755859,4.2963867-10.4658203,7.4467773
		c-2.9892578,3.1523438-5.3515625,6.8432579-7.0849609,11.0742149c-1.734375,4.230957-2.5996094,8.7202148-2.5996094,13.4692383
		s0.8652344,9.2177734,2.5996094,13.4042969c1.7333984,4.1884766,4.0957031,7.8364258,7.0849609,10.9443359
		c2.9902344,3.1079102,6.4775391,5.5698242,10.4658203,7.3818359
		C726.770813,118.1518784,731.0188599,119.0581284,735.5256958,119.0581284z"/>
	<path class="st0" d="M867.2151489,36.8979759h13.6503906v63.7001915c0,4.4199219-0.8457031,8.5371094-2.5351562,12.3496094
		c-1.6904297,3.8149414-4.0097656,7.1298828-6.9550781,9.9453125c-2.9472656,2.8173828-6.3701172,5.0498047-10.2695312,6.6948318
		c-3.9003906,1.6474609-8.1054688,2.4702148-12.6103516,2.4702148c-4.4199219,0-8.5595703-0.8227539-12.4150391-2.4702148
		c-3.8574219-1.6450272-7.2373047-3.877449-10.1396484-6.6948318c-2.9052734-2.8154297-5.1796875-6.1303711-6.8251953-9.9453125
		c-1.6474609-3.8125-2.4707031-7.9296875-2.4707031-12.3496094V36.8979759h13.6503906v63.7001915
		c0,2.5146484,0.4755859,4.875,1.4296875,7.0849609c0.953125,2.2099609,2.2529297,4.159668,3.9003906,5.8500977
		c1.6455078,1.6899414,3.5957031,3.012207,5.8496094,3.9648438c2.2529297,0.9545898,4.6357422,1.4301758,7.1503906,1.4301758
		c2.5996094,0,5.0253906-0.4755859,7.2802734-1.4301758c2.2519531-0.9526367,4.2246094-2.2749023,5.9150391-3.9648438
		c1.6894531-1.6904297,3.0097656-3.6401367,3.9648438-5.8500977c0.9521484-2.2099609,1.4296875-4.5703125,1.4296875-7.0849609
		V36.8979759z"/>
	<path class="st0" d="M914.4036255,132.058136l38.8701172-95.2900391l38.8701172,95.2900391H977.973938l-2.859375-7.5400467
		h-43.5507812l-2.9892578,7.5400467H914.4036255z M936.2444458,112.2978745h34.0595703L953.2737427,68.618187
		L936.2444458,112.2978745z"/>
	<path class="st0" d="M1039.5930176,118.6679916h38.8701172v13.64991h-52.7802734V36.8979759h13.9101562V118.6679916z"/>
	<path class="st0" d="M1112.0021973,36.8979759h13.9101562v95.2900391h-13.9101562V36.8979759z"/>
	<path class="st0" d="M1192.732666,36.8979759c6.4130859,0,12.4150391,1.2573242,18.0048828,3.7700195
		c5.5898438,2.5146484,10.4648438,5.9375,14.625,10.2700195c4.1601562,4.3344727,7.453125,9.3823242,9.8798828,15.1450157
		c2.4257812,5.7646484,3.640625,11.9394531,3.640625,18.5249023c0,6.5874023-1.1699219,12.762207-3.5097656,18.5249023
		c-2.3408203,5.7646484-5.5703125,10.7900391-9.6855469,15.0800781c-4.1171875,4.2900391-8.9921875,7.6923828-14.625,10.2050858
		c-5.6347656,2.5146484-11.7441406,3.7700195-18.3300781,3.7700195h-33.2802734V36.8979759H1192.732666z M1191.1730957,119.9677963
		c4.8525391,0,9.3154297-0.9321289,13.3896484-2.7988281c4.0732422-1.8666992,7.5830078-4.4057617,10.5302734-7.6191406
		c2.9453125-3.2133789,5.2421875-6.9672852,6.8896484-11.265625c1.6455078-4.2978516,2.4697266-8.878418,2.4697266-13.7412109
		s-0.8242188-9.4414062-2.4697266-13.7392578c-1.6474609-4.2983398-3.9648438-8.051754-6.9550781-11.2656212
		c-2.9892578-3.2133789-6.5224609-5.7524414-10.5947266-7.6191406c-4.0742188-1.8666992-8.4951172-2.8007812-13.2597656-2.8007812
		h-17.8105469v70.8496094H1191.1730957z"/>
	<path class="st0" d="M1350.4221191,90.7177963h34.9707031v14.4301758h-34.9707031V90.7177963z"/>
	<path class="st0" d="M1562.4504395,80.0581284c-1.2148438,3.8999023-3.0126953,7.409668-5.3955078,10.5297852
		c-2.3837891,3.1201172-5.3095703,5.7646484-8.7744141,7.9301758c-0.1748047,0.1748047-0.3896484,0.3046875-0.6503906,0.3901367
		c-0.2597656,0.0869141-0.4775391,0.2172852-0.6494141,0.3896484l16.7695312,33.0200272h-14.6894531l-14.6904297-28.7299881
		c-1.0400391,0.1748047-2.0800781,0.3046875-3.1201172,0.3901367c-1.0400391,0.0874023-2.1669922,0.1298828-3.3798828,0.1298828
		h-17.0302734v28.2099686h-13.9101562V36.7680931h30.9404297c3.9003906,0,7.5605469,0.4995117,10.9853516,1.4951172
		c3.421875,0.9970703,6.5644531,2.3623047,9.4248047,4.0947266c7.0195312,4.4199219,11.7421875,10.6171875,14.1699219,18.5898438
		c0.0849609,0.4350586,0.1728516,0.824707,0.2597656,1.1704102c0.0859375,0.347168,0.2158203,0.7373047,0.390625,1.1699219
		v0.6499023c0.171875,0.4345665,0.2802734,0.9101524,0.3242188,1.430172
		c0.0429688,0.5200195,0.1083984,1.0400391,0.1953125,1.5600586v0.1298828
		c0.0849609,0.5200195,0.1298828,1.0400391,0.1298828,1.5600586s0,1.0844727,0,1.6899414v0.1298828v0.2597656
		c0,0.5200195,0,1.0400391,0,1.5600586s-0.0449219,1.0400391-0.1298828,1.5600586v0.2602539
		c-0.0869141,0.5200195-0.1523438,1.0195312-0.1953125,1.4946289c-0.0439453,0.4775391-0.1523438,0.9750977-0.3242188,1.4951172
		v0.5200195C1562.7531738,78.5425034,1562.5354004,79.3652573,1562.4504395,80.0581284z M1529.560791,91.8882065
		c2.859375,0,5.4794922-0.6074219,7.8642578-1.8242188c2.3828125-1.2167969,4.4404297-2.8256836,6.1757812-4.8242188
		c1.7324219-1.9990234,3.1191406-4.2817383,4.1591797-6.847168c1.0400391-2.5634766,1.5605469-5.2368164,1.5605469-8.0195312
		c0-2.6933594-0.5205078-5.3461914-1.5605469-7.954586c-1.0400391-2.6079102-2.4267578-4.8891602-4.1591797-6.8452148
		c-1.7353516-1.9560547-3.7929688-3.5424805-6.1757812-4.7592773c-2.3847656-1.2167969-5.0048828-1.8261719-7.8642578-1.8261719
		h-18.5908203v42.9003868H1529.560791z"/>
	<path class="st0" d="M1597.2893066,132.058136l38.8701172-95.2900391l38.8701172,95.2900391h-14.1699219l-2.859375-7.5400467
		h-43.5507812l-2.9892578,7.5400467H1597.2893066z M1619.130127,112.2978745h34.0595703l-17.0302734-43.6796875
		L1619.130127,112.2978745z"/>
	<path class="st0" d="M1788.7805176,36.8979759l17.6796875,95.4199219h-14.1699219l-9.2304688-52.9096756l-25.609375,54.599617
		l-25.4804688-54.599617l-9.2294922,52.9096756h-14.1708984l17.6806641-95.4199219l31.2001953,65.6499023L1788.7805176,36.8979759z"
		/>
	<path class="st0" d="M1839.998291,132.058136l38.8701172-95.2900391l38.8701172,95.2900391h-14.1699219l-2.859375-7.5400467
		h-43.5507812l-2.9892578,7.5400467H1839.998291z M1861.8391113,112.2978745h34.0595703l-17.0302734-43.6796875
		L1861.8391113,112.2978745z"/>
	<path class="st0" d="M2029.2785645,90.7177963h34.9707031v14.4301758h-34.9707031V90.7177963z"/>
	<path class="st0" d="M2241.3068848,80.0581284c-1.2148438,3.8999023-3.0126953,7.409668-5.3955078,10.5297852
		c-2.3837891,3.1201172-5.3095703,5.7646484-8.7744141,7.9301758c-0.1748047,0.1748047-0.3896484,0.3046875-0.6503906,0.3901367
		c-0.2597656,0.0869141-0.4775391,0.2172852-0.6494141,0.3896484l16.7695312,33.0200272h-14.6894531l-14.6904297-28.7299881
		c-1.0400391,0.1748047-2.0800781,0.3046875-3.1201172,0.3901367c-1.0400391,0.0874023-2.1669922,0.1298828-3.3798828,0.1298828
		h-17.0302734v28.2099686h-13.9101562V36.7680931h30.9404297c3.9003906,0,7.5605469,0.4995117,10.9853516,1.4951172
		c3.421875,0.9970703,6.5644531,2.3623047,9.4248047,4.0947266c7.0195312,4.4199219,11.7421875,10.6171875,14.1699219,18.5898438
		c0.0849609,0.4350586,0.1728516,0.824707,0.2597656,1.1704102c0.0859375,0.347168,0.2158203,0.7373047,0.390625,1.1699219
		v0.6499023c0.171875,0.4345665,0.2802734,0.9101524,0.3242188,1.430172
		c0.0429688,0.5200195,0.1083984,1.0400391,0.1953125,1.5600586v0.1298828
		c0.0849609,0.5200195,0.1298828,1.0400391,0.1298828,1.5600586s0,1.0844727,0,1.6899414v0.1298828v0.2597656
		c0,0.5200195,0,1.0400391,0,1.5600586s-0.0449219,1.0400391-0.1298828,1.5600586v0.2602539
		c-0.0869141,0.5200195-0.1523438,1.0195312-0.1953125,1.4946289c-0.0439453,0.4775391-0.1523438,0.9750977-0.3242188,1.4951172
		v0.5200195C2241.6096191,78.5425034,2241.3918457,79.3652573,2241.3068848,80.0581284z M2208.4172363,91.8882065
		c2.859375,0,5.4794922-0.6074219,7.8642578-1.8242188c2.3828125-1.2167969,4.4404297-2.8256836,6.1757812-4.8242188
		c1.7324219-1.9990234,3.1191406-4.2817383,4.1591797-6.847168c1.0400391-2.5634766,1.5605469-5.2368164,1.5605469-8.0195312
		c0-2.6933594-0.5205078-5.3461914-1.5605469-7.954586c-1.0400391-2.6079102-2.4267578-4.8891602-4.1591797-6.8452148
		c-1.7353516-1.9560547-3.7929688-3.5424805-6.1757812-4.7592773c-2.3847656-1.2167969-5.0048828-1.8261719-7.8642578-1.8261719
		h-18.5908203v42.9003868H2208.4172363z"/>
	<path class="st0" d="M2323.5969238,36.5078392c6.5859375,0,12.7832031,1.2573242,18.5898438,3.7700195
		c5.8056641,2.5146484,10.8554688,5.9375,15.1455078,10.2700195c4.2900391,4.3349609,7.6699219,9.425293,10.1396484,15.2748985
		c2.4707031,5.8500977,3.7050781,12.112793,3.7050781,18.7851562c0,6.5874023-1.234375,12.784668-3.7050781,18.5898438
		c-2.4697266,5.8076172-5.8496094,10.8774414-10.1396484,15.2104492
		c-4.2900391,4.3344727-9.3398438,7.7573242-15.1455078,10.2700272c-5.8066406,2.5146484-12.0039062,3.7695312-18.5898438,3.7695312
		c-6.5869141,0-12.7617188-1.2548828-18.5244141-3.7695312c-5.7646484-2.5127029-10.7900391-5.9355545-15.0800781-10.2700272
		c-4.2900391-4.3330078-7.6699219-9.402832-10.140625-15.2104492c-2.4697266-5.8051758-3.7050781-12.0024414-3.7050781-18.5898438
		c0-6.6723633,1.2353516-12.9350586,3.7050781-18.7851562c2.4707031-5.8496056,5.8505859-10.9399376,10.140625-15.2748985
		c4.2900391-4.3325195,9.3154297-7.7553711,15.0800781-10.2700195
		C2310.8352051,37.7651634,2317.0100098,36.5078392,2323.5969238,36.5078392z M2323.5969238,119.0581284
		c4.5058594,0,8.7753906-0.90625,12.8056641-2.7197266c4.0292969-1.8120117,7.5400391-4.2739258,10.5292969-7.3818359
		c2.9902344-3.1079102,5.3505859-6.7558594,7.0849609-10.9443359c1.7333984-4.1865234,2.6005859-8.6552734,2.6005859-13.4042969
		s-0.8671875-9.2382812-2.6005859-13.4692383c-1.734375-4.230957-4.0947266-7.9218712-7.0849609-11.0742149
		c-2.9892578-3.1503906-6.5-5.6328125-10.5292969-7.4467773c-4.0302734-1.8115234-8.2998047-2.7197266-12.8056641-2.7197266
		c-4.5068359,0-8.7548828,0.9082031-12.7392578,2.7197266c-3.9882812,1.8139648-7.4755859,4.2963867-10.4658203,7.4467773
		c-2.9892578,3.1523438-5.3515625,6.8432579-7.0849609,11.0742149c-1.734375,4.230957-2.5996094,8.7202148-2.5996094,13.4692383
		s0.8652344,9.2177734,2.5996094,13.4042969c1.7333984,4.1884766,4.0957031,7.8364258,7.0849609,10.9443359
		c2.9902344,3.1079102,6.4775391,5.5698242,10.4658203,7.3818359
		C2314.842041,118.1518784,2319.0900879,119.0581284,2323.5969238,119.0581284z"/>
	<path class="st0" d="M2484.9260254,36.8979759l17.6796875,95.4199219h-14.1699219l-9.2304688-52.9096756l-25.609375,54.599617
		l-25.4804688-54.599617l-9.2294922,52.9096756h-14.1708984l17.6806641-95.4199219l31.2001953,65.6499023L2484.9260254,36.8979759z"
		/>
	<path class="st0" d="M2536.1447754,132.058136l38.8701172-95.2900391l38.8701172,95.2900391h-14.1699219l-2.859375-7.5400467
		h-43.5507812l-2.9892578,7.5400467H2536.1447754z M2557.9855957,112.2978745h34.0595703l-17.0302734-43.6796875
		L2557.9855957,112.2978745z"/>
	<path class="st0" d="M2647.4240723,36.8979759h13.9101562v95.2900391h-13.9101562V36.8979759z"/>
	<path class="st0" d="M2708.005127,132.4477844h-13.1308594V35.3379173l61.6201172,73.7099609V37.0278587h13.1298828v95.4199219
		h-12.7392578l-48.8798828-60.189949V132.4477844z"/>
	<path class="st0" d="M2881.1623535,90.7177963h34.9707031v14.4301758h-34.9707031V90.7177963z"/>
	<path class="st0" d="M3093.1916504,80.0581284c-1.2148438,3.8999023-3.0126953,7.409668-5.3955078,10.5297852
		c-2.3837891,3.1201172-5.3095703,5.7646484-8.7744141,7.9301758c-0.1748047,0.1748047-0.3896484,0.3046875-0.6503906,0.3901367
		c-0.2597656,0.0869141-0.4775391,0.2172852-0.6494141,0.3896484l16.7695312,33.0200272h-14.6894531l-14.6904297-28.7299881
		c-1.0400391,0.1748047-2.0800781,0.3046875-3.1201172,0.3901367c-1.0400391,0.0874023-2.1669922,0.1298828-3.3798828,0.1298828
		h-17.0302734v28.2099686h-13.9101562V36.7680931h30.9404297c3.9003906,0,7.5605469,0.4995117,10.9853516,1.4951172
		c3.421875,0.9970703,6.5644531,2.3623047,9.4248047,4.0947266c7.0195312,4.4199219,11.7421875,10.6171875,14.1699219,18.5898438
		c0.0849609,0.4350586,0.1728516,0.824707,0.2597656,1.1704102c0.0859375,0.347168,0.2158203,0.7373047,0.390625,1.1699219
		v0.6499023c0.171875,0.4345665,0.2802734,0.9101524,0.3242188,1.430172
		c0.0429688,0.5200195,0.1083984,1.0400391,0.1953125,1.5600586v0.1298828
		c0.0849609,0.5200195,0.1298828,1.0400391,0.1298828,1.5600586s0,1.0844727,0,1.6899414v0.1298828v0.2597656
		c0,0.5200195,0,1.0400391,0,1.5600586s-0.0449219,1.0400391-0.1298828,1.5600586v0.2602539
		c-0.0869141,0.5200195-0.1523438,1.0195312-0.1953125,1.4946289c-0.0439453,0.4775391-0.1523438,0.9750977-0.3242188,1.4951172
		v0.5200195C3093.4943848,78.5425034,3093.2766113,79.3652573,3093.1916504,80.0581284z M3060.302002,91.8882065
		c2.859375,0,5.4794922-0.6074219,7.8642578-1.8242188c2.3828125-1.2167969,4.4404297-2.8256836,6.1757812-4.8242188
		c1.7324219-1.9990234,3.1191406-4.2817383,4.1591797-6.847168c1.0400391-2.5634766,1.5605469-5.2368164,1.5605469-8.0195312
		c0-2.6933594-0.5205078-5.3461914-1.5605469-7.954586c-1.0400391-2.6079102-2.4267578-4.8891602-4.1591797-6.8452148
		c-1.7353516-1.9560547-3.7929688-3.5424805-6.1757812-4.7592773c-2.3847656-1.2167969-5.0048828-1.8261719-7.8642578-1.8261719
		h-18.5908203v42.9003868H3060.302002z"/>
	<path class="st0" d="M3128.0305176,132.058136l38.8701172-95.2900391l38.8701172,95.2900391h-14.1699219l-2.859375-7.5400467
		h-43.5507812l-2.9892578,7.5400467H3128.0305176z M3149.8713379,112.2978745h34.0595703l-17.0302734-43.6796875
		L3149.8713379,112.2978745z"/>
	<path class="st0" d="M3306.0002441,67.0581284c0.0849609,0.5200195,0.1503906,1.0400391,0.1953125,1.5600586
		c0.0419922,0.5200195,0.0644531,1.0844727,0.0644531,1.6899414v0.1298828v0.1298828
		c0,0.6074219-0.0224609,1.1699219-0.0644531,1.6899414c-0.0449219,0.5200195-0.1103516,1.0400391-0.1953125,1.5600586v0.1298828
		l-0.3896484,3.1201172c-0.0878906,0.0874023-0.1298828,0.2602539-0.1298828,0.5200195
		c-0.0878906,0.4345703-0.1748047,0.824707-0.2607422,1.1699219c-0.0869141,0.3476562-0.2167969,0.7373047-0.3896484,1.1704102
		c-1.2148438,3.9873047-3.0126953,7.5395508-5.3955078,10.659668c-2.3837891,3.1201172-5.2646484,5.7646484-8.6445312,7.9301758
		c-2.8603516,1.734375-6.0244141,3.0996094-9.4902344,4.0947266c-3.4667969,0.9975586-7.1494141,1.4951172-11.0498047,1.4951172
		h-17.0302734v28.2099686h-13.9101562V36.7680931h30.9404297c7.7998047,0,14.6455078,1.8647461,20.5400391,5.5898438
		c3.3798828,2.1674805,6.2607422,4.8100586,8.6445312,7.9301758c2.3828125,3.1201172,4.1806641,6.6298828,5.3955078,10.5297852
		c0.3457031,0.9545898,0.5625,1.7773438,0.6503906,2.4702148c0,0.2597656,0.0419922,0.4345703,0.1298828,0.5200195
		c0.0849609,0.5200157,0.1503906,1.0400352,0.1943359,1.5600548c0.0429688,0.5200195,0.1083984,0.9970703,0.1953125,1.4296875
		V67.0581284z M3271.9406738,91.8882065c2.859375,0,5.4794922-0.6054688,7.8642578-1.8203125
		c2.3828125-1.2124023,4.4628906-2.8154297,6.2402344-4.8100586c1.7753906-1.9926758,3.1630859-4.2675781,4.1601562-6.824707
		c0.9951172-2.5556641,1.4951172-5.2202148,1.4951172-7.9951172c0-2.7724609-0.5-5.4375-1.4951172-7.9951134
		c-0.9970703-2.5551758-2.3847656-4.8300781-4.1601562-6.824707c-1.7773438-1.9926758-3.8574219-3.5957031-6.2402344-4.8100586
		c-2.3847656-1.2128906-5.0048828-1.8203125-7.8642578-1.8203125h-18.5908203v42.9003868H3271.9406738z"/>
	<path class="st0" d="M3390.7600098,36.8979759h13.9091797v95.1601562h-13.9091797v-17.0302811v-12.4799805h-37.0507812v12.4799805
		v17.0302811h-13.9101562V36.8979759h13.9101562v16.5102539v24.4399376V90.067894v0.2602539h37.0507812V90.067894V77.8481674
		V53.4082298V36.8979759z"/>
	<path class="st0" d="M3438.208252,132.058136l38.8701172-95.2900391l38.8701172,95.2900391h-14.1699219l-2.859375-7.5400467
		h-43.5507812l-2.9892578,7.5400467H3438.208252z M3460.0490723,112.2978745h34.0595703l-17.0302734-43.6796875
		L3460.0490723,112.2978745z"/>
	<path class="st0" d="M3601.8693848,41.4800072h-42.3388672v33.8964806h33.7695312v8.3154297h-33.7695312v39.7363281h44.2431641
		v8.7597733h-55.0341797V32.7202415h53.1298828V41.4800072z M3555.1506348,11.8999281
		c0-1.6918945,0.5810547-3.0883789,1.7451172-4.1894536c1.1640625-1.1000977,2.5917969-1.6503906,4.2851562-1.6503906
		c1.734375,0,3.1523438,0.5932617,4.2529297,1.7773438c1.0996094,1.1850591,1.6503906,2.5815434,1.6503906,4.1894536
		c0,0.847168-0.1484375,1.640625-0.4443359,2.3803711c-0.296875,0.7407227-0.6982422,1.3867188-1.2060547,1.9360342
		c-0.5078125,0.550293-1.1220703,0.9946289-1.8408203,1.3330078c-0.7197266,0.3393555-1.5234375,0.5078125-2.4121094,0.5078125
		c-0.8466797,0-1.640625-0.1796875-2.3808594-0.5395508c-0.7402344-0.3588867-1.375-0.8349609-1.9042969-1.4282227
		c-0.5292969-0.5922842-0.9511719-1.2587881-1.2695312-1.9995108
		C3555.3098145,13.4770765,3555.1506348,12.7041273,3555.1506348,11.8999281z M3584.0959473,11.8999281
		c0-1.6918945,0.5810547-3.0883789,1.7451172-4.1894536c1.1640625-1.1000977,2.5917969-1.6503906,4.2851562-1.6503906
		c1.734375,0,3.1523438,0.5932617,4.2529297,1.7773438c1.0996094,1.1850591,1.6503906,2.5815434,1.6503906,4.1894536
		c0,0.847168-0.1484375,1.640625-0.4443359,2.3803711c-0.296875,0.7407227-0.6982422,1.3867188-1.2060547,1.9360342
		c-0.5078125,0.550293-1.1220703,0.9946289-1.8408203,1.3330078c-0.7197266,0.3393555-1.5234375,0.5078125-2.4121094,0.5078125
		c-0.8466797,0-1.640625-0.1796875-2.3808594-0.5395508c-0.7402344-0.3588867-1.375-0.8349609-1.9042969-1.4282227
		c-0.5292969-0.5922842-0.9511719-1.2587881-1.2695312-1.9995108
		C3584.255127,13.4770765,3584.0959473,12.7041273,3584.0959473,11.8999281z"/>
	<path class="st0" d="M3646.6662598,118.6679916h38.8701172v13.64991h-52.7802734V36.8979759h13.9101562V118.6679916z"/>
</g>
<g>
</g>
<g>
</g>
<g>
</g>
<g>
</g>
<g>
</g>
<g>
</g>
</svg>
